opsz144_wght1000_wdth125.ufo
<glyph name="zero" format="2">
	<unicode hex="0030"/>
	<advance width="1180"/>
	<outline>
		<contour>
			<point x="95.7800141188" y="883.4112548828" type="qcurve" smooth="yes"/>
			<point x="179.1145478102" y="1195.1915893555"/>
			<point x="535.1196899414" y="1575.4642333984"/>
			<point x="806.3628540039" y="1532.9799804688" type="qcurve" smooth="yes"/>
			<point x="955.6654663086" y="1494.4957275391"/>
			<point x="1162.486740193" y="975.2907714844"/>
			<point x="1082.210556111" y="661.5687255859" type="qcurve" smooth="yes"/>
			<point x="995.6024018141" y="330.7561645508"/>
			<point x="634.600402832" y="-45.9685058594"/>
			<point x="377.1271362305" y="-17" type="qcurve" smooth="yes"/>
			<point x="216.6062011719" y="16.9685058594"/>
			<point x="8.7459565016" y="545.4802856445"/>
		</contour>
		<contour>
			<point x="277.3503417969" y="865.5588989258" type="qcurve" smooth="yes"/>
			<point x="186.9699707031" y="540.051940918"/>
			<point x="242.4403686523" y="118.9975585938"/>
			<point x="405.0497436523" y="93.9975585938" type="qcurve" smooth="yes"/>
			<point x="571.2841186523" y="67.9975585938"/>
			<point x="833.1211547852" y="443.5487670898"/>
			<point x="906.9411621094" y="708.6632080078" type="qcurve" smooth="yes"/>
			<point x="979.3574829102" y="978.1716308594"/>
			<point x="931.0335083008" y="1395.8672485352"/>
			<point x="769.3772583008" y="1417.8672485352" type="qcurve" smooth="yes"/>
			<point x="613.2835083008" y="1439.8672485352"/>
			<point x="357.5164794922" y="1153.6733398438"/>
		</contour>
	</outline>
</glyph>
<glyph name="one" format="2">
	<unicode hex="0031"/>
	<advance width="719"/>
	<outline>
		<contour>
			<point x="208.2333374023" y="33.4229125977" type="line"/>
			<point x="237.9639892578" y="66.3845214844"/>
			<point x="266.4857177734" y="158.1127929688"/>
			<point x="305.4937744141" y="319.3464355469" type="qcurve" smooth="yes"/>
			<point x="482.0013427734" y="1042.4039306641" type="line"/>
			<point x="529.6312866211" y="1302.1162719727" type="line"/>
			<point x="60.3363037109" y="1048.1729125977" type="line"/>
			<point x="10.8756103516" y="1182.4398193359" type="line"/>
			<point x="572.517578125" y="1530.9477539062" type="line"/>
			<point x="720.4395751953" y="1434.5254516602" type="line"/>
			<point x="692.9014892578" y="1397.3712768555"/>
			<point x="658.9807739258" y="1299.7174072266"/>
			<point x="644.0191650391" y="1237.9477539062" type="qcurve" smooth="yes"/>
			<point x="517.3185424805" y="715.9013671875" type="line"/>
			<point x="388.9254150391" y="126.6934814453" type="line"/>
			<point x="389.6550292969" y="-35.268737793" type="line"/>
		</contour>
	</outline>
</glyph>
<glyph name="two" format="2">
	<unicode hex="0032"/>
	<advance width="975"/>
	<outline>
		<contour>
			<point x="-155.9838867188" y="-1.9033203125" type="qcurve"/>
			<point x="-215.2504882812" y="76.1527099609" type="line"/>
			<point x="-43.0557861328" y="198.3046264648" type="line" smooth="yes"/>
			<point x="247.5344848633" y="395.8763427734"/>
			<point x="807.7548828125" y="882.8735351562"/>
			<point x="829.4794921875" y="1057.3435058594" type="qcurve" smooth="yes"/>
			<point x="845.4458007812" y="1167.7308349609"/>
			<point x="690.4240722656" y="1265.4103393555"/>
			<point x="576.6664428711" y="1265.4103393555" type="qcurve" smooth="yes"/>
			<point x="437.0341186523" y="1265.4103393555"/>
			<point x="188.7282104492" y="1160.1659545898"/>
			<point x="104.2326049805" y="1081.3157348633" type="qcurve"/>
			<point x="25.1716918945" y="1156.4479370117" type="line"/>
			<point x="114.0469970703" y="1272.7595214844"/>
			<point x="468.9190063477" y="1528.0202636719"/>
			<point x="677.1372070312" y="1528.0202636719" type="qcurve" smooth="yes"/>
			<point x="816.9754638672" y="1528.0202636719"/>
			<point x="1003.342956543" y="1355.544921875"/>
			<point x="1006.9748535156" y="1177.1461181641" type="qcurve" smooth="yes"/>
			<point x="1012.7858886719" y="920.3452148438"/>
			<point x="544.0298461914" y="430.0968017578"/>
			<point x="173.1090698242" y="158.2653198242" type="qcurve"/>
			<point x="174.8952636719" y="148.5366821289" type="line"/>
			<point x="182.539855957" y="143.496887207"/>
			<point x="237.9288330078" y="160.7006225586"/>
			<point x="315.9046020508" y="162.1608276367" type="qcurve"/>
			<point x="423.5623779297" y="154.8303222656"/>
			<point x="704.3117675781" y="92.8951416016"/>
			<point x="772.8874511719" y="71.7637329102" type="qcurve"/>
			<point x="859.6859130859" y="272.8692626953" type="line"/>
			<point x="943.2385253906" y="247.1943359375" type="line"/>
			<point x="833.0462036133" y="-27.0847167969" type="line"/>
			<point x="710.192199707" y="6.7502441406"/>
			<point x="398.591796875" y="86.7038574219"/>
			<point x="352.791809082" y="88.2698974609" type="qcurve" smooth="yes"/>
			<point x="218.7774658203" y="88.2658691406"/>
			<point x="-74.4263305664" y="44.1853027344"/>
		</contour>
	</outline>
</glyph>
<glyph name="three" format="2">
	<unicode hex="0033"/>
	<advance width="1043"/>
	<outline>
		<contour>
			<point x="-124.2819824219" y="259.8394775391" type="qcurve"/>
			<point x="-123.2819824219" y="334.9079589844"/>
			<point x="-28.0083618164" y="420.9233398438"/>
			<point x="44.6865234375" y="415.6812133789" type="qcurve"/>
			<point x="101.3814086914" y="411.6610717773" type="line"/>
			<point x="93.8971557617" y="383.6409301758"/>
			<point x="89.7931518555" y="318.6369018555"/>
			<point x="90.1392822266" y="275.6087036133" type="qcurve" smooth="yes"/>
			<point x="90.3814086914" y="188.2756958008"/>
			<point x="253.9626464844" y="88.1597900391"/>
			<point x="389.943359375" y="86.1597900391" type="qcurve" smooth="yes"/>
			<point x="579.1079101562" y="84.1597900391"/>
			<point x="792.0612182617" y="286.3897705078"/>
			<point x="809.8190917969" y="450.4264526367" type="qcurve" smooth="yes"/>
			<point x="826.8190917969" y="617.9550170898"/>
			<point x="620.4298095703" y="750.3634643555"/>
			<point x="424.8714599609" y="753.2419433594" type="qcurve" smooth="yes"/>
			<point x="296.3340454102" y="754.9159545898" type="line"/>
			<point x="301.8609619141" y="862.3410644531" type="line"/>
			<point x="386.2192382812" y="861.3067016602" type="line" smooth="yes"/>
			<point x="609.3157348633" y="858.3417358398"/>
			<point x="843.669128418" y="1031.7385864258"/>
			<point x="857.9112548828" y="1148.9353027344" type="qcurve" smooth="yes"/>
			<point x="869.669128418" y="1236.591003418"/>
			<point x="762.6513671875" y="1328.1923828125"/>
			<point x="642.517578125" y="1328.1923828125" type="qcurve" smooth="yes"/>
			<point x="500.4771118164" y="1328.1923828125"/>
			<point x="283.2138671875" y="1213.0294799805"/>
			<point x="226.2181396484" y="1164.1839599609" type="qcurve"/>
			<point x="151.0383300781" y="1254.4997558594" type="line"/>
			<point x="203.3200683594" y="1336.649230957"/>
			<point x="505.7576904297" y="1529.7295532227"/>
			<point x="711.1268920898" y="1530.5166015625" type="qcurve" smooth="yes"/>
			<point x="865.9955444336" y="1531.3036499023"/>
			<point x="1031.993347168" y="1353.3712768555"/>
			<point x="1015.993347168" y="1192.2508544922" type="qcurve" smooth="yes"/>
			<point x="1000.993347168" y="1041.1264038086"/>
			<point x="810.8863525391" y="860.1151733398"/>
			<point x="624.2986450195" y="828.5584106445" type="qcurve"/>
			<point x="623.0565185547" y="821.5422973633" type="line"/>
			<point x="787.9253540039" y="806.9862670898"/>
			<point x="1005.4799194336" y="616.4786987305"/>
			<point x="991.4799194336" y="423.0436401367" type="qcurve" smooth="yes"/>
			<point x="979.2062988281" y="235.467590332"/>
			<point x="644.8007202148" y="-23"/>
			<point x="346.190246582" y="-23" type="qcurve" smooth="yes"/>
			<point x="110.740234375" y="-23"/>
			<point x="-126.2819824219" y="138.9849243164"/>
		</contour>
	</outline>
</glyph>
<glyph name="four" format="2">
	<unicode hex="0034"/>
	<advance width="1353"/>
	<outline>
		<contour>
			<point x="-62.4384765625" y="397.2945556641" type="line"/>
			<point x="-80.7462158203" y="511.1391601562" type="line"/>
			<point x="1222.6484985352" y="1578.9155273438" type="line"/>
			<point x="1177.4032592773" y="1451.9155273438" type="line"/>
			<point x="1185.4032592773" y="1401.9155273438" type="line"/>
			<point x="991.9319458008" y="514.2165527344" type="line"/>
			<point x="986.9319458008" y="487.2165527344" type="line"/>
			<point x="924.7466430664" y="200.3907470703" type="line"/>
			<point x="932.6781616211" y="81" type="line"/>
			<point x="846.9234008789" y="-31" type="line"/>
			<point x="709.9234008789" y="29" type="line"/>
			<point x="835.1771850586" y="489.2165527344" type="line"/>
			<point x="843.1771850586" y="514.2165527344" type="line"/>
			<point x="1020.5953979492" y="1253.477355957" type="line"/>
			<point x="206.9530029297" y="593.1001586914" type="line"/>
			<point x="211.6452636719" y="581.3695068359" type="line"/>
			<point x="966.8376464844" y="566.4462890625" type="line"/>
			<point x="1295.0462036133" y="576.1001586914" type="line"/>
			<point x="1257.8542480469" y="389.2945556641" type="line"/>
			<point x="950.645690918" y="391.2177734375" type="line"/>
		</contour>
	</outline>
</glyph>
<glyph name="five" format="2">
	<unicode hex="0035"/>
	<advance width="1141"/>
	<outline>
		<contour>
			<point x="-102.1973876953" y="216.4552001953" type="qcurve" smooth="yes"/>
			<point x="-102.1973876953" y="315.5679931641"/>
			<point x="-3.9149780273" y="396.64453125"/>
			<point x="58.8026123047" y="396.6727294922" type="qcurve"/>
			<point x="88.8026123047" y="396.6566162109" type="line"/>
			<point x="94.8026123047" y="251.4753417969" type="line" smooth="yes"/>
			<point x="98.8026123047" y="178.3838500977"/>
			<point x="266.5110473633" y="87.5665893555"/>
			<point x="467.5900268555" y="87.5665893555" type="qcurve" smooth="yes"/>
			<point x="689.9501953125" y="87.5665893555"/>
			<point x="885.6241455078" y="304.4658813477"/>
			<point x="901.9223632812" y="521.6677246094" type="qcurve" smooth="yes"/>
			<point x="919.4627075195" y="738.4935913086"/>
			<point x="569.8499145508" y="835.2688598633"/>
			<point x="297.518737793" y="763.1776123047" type="qcurve" smooth="yes"/>
			<point x="201.6246948242" y="740.2493286133" type="line"/>
			<point x="127.619140625" y="822.0072021484" type="line"/>
			<point x="270.5260620117" y="1470.9719238281" type="line"/>
			<point x="308.7681884766" y="1503.9678955078" type="line"/>
			<point x="1076.6406860352" y="1503.9678955078" type="line"/>
			<point x="1041.6506347656" y="1367.4622192383" type="line"/>
			<point x="401.8383789062" y="1367.4622192383" type="line"/>
			<point x="388.8383789062" y="1356.4340209961" type="line"/>
			<point x="338.6313476562" y="1162.3618774414"/>
			<point x="299.7965698242" y="966.0291137695"/>
			<point x="262.2977294922" y="875.1832885742" type="qcurve"/>
			<point x="564.3500366211" y="955.060546875" type="line"/>
			<point x="823.7318115234" y="1007.9345703125"/>
			<point x="1066.4921264648" y="790.2376098633"/>
			<point x="1052.6397705078" y="543.5509033203" type="qcurve" smooth="yes"/>
			<point x="1038.7559204102" y="270.6136474609"/>
			<point x="703.7956542969" y="-24"/>
			<point x="353.5729980469" y="-24" type="qcurve" smooth="yes"/>
			<point x="133.6430053711" y="-24"/>
			<point x="-102.1973876953" y="128.2618408203"/>
		</contour>
	</outline>
</glyph>
<glyph name="six" format="2">
	<unicode hex="0036"/>
	<advance width="1051"/>
	<outline>
		<contour>
			<point x="33.2736206055" y="565.0549926758" type="qcurve" smooth="yes"/>
			<point x="44.1259765625" y="933.1712646484"/>
			<point x="761.4689331055" y="1574.4973754883"/>
			<point x="1218.2447509766" y="1584.1088867188" type="qcurve"/>
			<point x="1253.7670288086" y="1488.6534423828" type="line"/>
			<point x="812.6647949219" y="1423.1205444336"/>
			<point x="195.3792724609" y="868.0380249023"/>
			<point x="177.4566040039" y="491.542175293" type="qcurve" smooth="yes"/>
			<point x="162.374206543" y="222.5953369141"/>
			<point x="285.4028930664" y="93.231628418"/>
			<point x="446.2481689453" y="92.9895019531" type="qcurve" smooth="yes"/>
			<point x="603.1353759766" y="92.5052490234"/>
			<point x="802.6292114258" y="332.4466552734"/>
			<point x="810.4329223633" y="518.1395263672" type="qcurve" smooth="yes"/>
			<point x="819.0900268555" y="629.3357543945"/>
			<point x="691.5361938477" y="744.4768676758"/>
			<point x="577.8012084961" y="744.7189941406" type="qcurve" smooth="yes"/>
			<point x="534.8776855469" y="744.9611206055"/>
			<point x="433.8709716797" y="725.3770141602"/>
			<point x="380.6061401367" y="702.8792114258" type="qcurve"/>
			<point x="356.6563110352" y="786.9206542969" type="line"/>
			<point x="405.3657836914" y="830.555847168"/>
			<point x="591.7105712891" y="913.7205810547"/>
			<point x="655.0310668945" y="913.4784545898" type="qcurve" smooth="yes"/>
			<point x="799.4920043945" y="912.9942016602"/>
			<point x="979.931640625" y="708.1909179688"/>
			<point x="970.8056640625" y="527.2311401367" type="qcurve" smooth="yes"/>
			<point x="960.9218139648" y="284.2551269531"/>
			<point x="618.6646728516" y="-19.2421264648"/>
			<point x="376.7284545898" y="-19" type="qcurve" smooth="yes"/>
			<point x="298.1087646484" y="-18.7578735352"/>
			<point x="25.4527587891" y="282.4320678711"/>
		</contour>
	</outline>
</glyph>
<glyph name="seven" format="2">
	<unicode hex="0037"/>
	<advance width="1161"/>
	<outline>
		<contour>
			<point x="-38.7055053711" y="1204.3119506836" type="line"/>
			<point x="8.0733032227" y="1503.9759521484" type="line"/>
			<point x="1266.0142211914" y="1503.9759521484" type="line"/>
			<point x="1300.9282836914" y="1437.2459106445" type="line"/>
			<point x="1070.2237548828" y="1221.9418945312"/>
			<point x="487.9281005859" y="428.5840454102"/>
			<point x="331.8669433594" y="61.7123413086" type="qcurve"/>
			<point x="175.1506347656" y="-9.7496948242" type="line"/>
			<point x="164.258605957" y="-38.5192871094" type="line"/>
			<point x="358.4693603516" y="461.7921142578"/>
			<point x="951.3311157227" y="1235.6234741211"/>
			<point x="1082.7379150391" y="1410.8226928711" type="qcurve"/>
			<point x="1076.0115356445" y="1415.8226928711" type="line"/>
			<point x="144.1768188477" y="1409.8226928711" type="line"/>
			<point x="63.295715332" y="1205.3217163086" type="line"/>
		</contour>
	</outline>
</glyph>
<glyph name="eight" format="2">
	<unicode hex="0038"/>
	<advance width="1113"/>
	<outline>
		<contour>
			<point x="636.7994384766" y="888.3055419922" type="qcurve"/>
			<point x="755.6093139648" y="832.6302490234" type="line"/>
			<point x="571.6937866211" y="766.7721557617"/>
			<point x="351.9678344727" y="563.2267456055"/>
			<point x="330.3850708008" y="412.8916625977" type="qcurve" smooth="yes"/>
			<point x="310.0759277344" y="290.4123535156"/>
			<point x="424.2136230469" y="86.0551147461"/>
			<point x="616.9500732422" y="84.2972412109" type="qcurve" smooth="yes"/>
			<point x="752.3284912109" y="82.7814941406"/>
			<point x="997.4192504883" y="264.9262084961"/>
			<point x="999.0020141602" y="392.9962768555" type="qcurve" smooth="yes"/>
			<point x="999.584777832" y="523.634765625"/>
			<point x="741.1860961914" y="725.7922973633"/>
			<point x="564.4236450195" y="844.3356323242" type="qcurve" smooth="yes"/>
			<point x="391.3294677734" y="964.6569824219"/>
			<point x="285.5029296875" y="1200.7603149414"/>
			<point x="293.6604003906" y="1262.8568115234" type="qcurve" smooth="yes"/>
			<point x="306.5442504883" y="1324.1126708984"/>
			<point x="419.2312011719" y="1541.4481201172"/>
			<point x="698.9364013672" y="1537.9323730469" type="qcurve" smooth="yes"/>
			<point x="947.4457397461" y="1535.4166259766"/>
			<point x="1127.4104003906" y="1358.825378418"/>
			<point x="1123.3993530273" y="1262.0908813477" type="qcurve" smooth="yes"/>
			<point x="1118.0037231445" y="1119.5200805664"/>
			<point x="854.3085327148" y="947.8778686523"/>
			<point x="581.3912963867" y="844.3240356445" type="qcurve"/>
			<point x="468.3587036133" y="901.9872436523" type="line"/>
			<point x="643.452331543" y="998.4922485352"/>
			<point x="785.2059326172" y="1209.8932495117"/>
			<point x="777.4923706055" y="1308.2037353516" type="qcurve" smooth="yes"/>
			<point x="768.2670898438" y="1352.5241088867"/>
			<point x="717.5129394531" y="1421.5564575195"/>
			<point x="622.9405517578" y="1422.5564575195" type="qcurve" smooth="yes"/>
			<point x="479.8179321289" y="1423.3143310547"/>
			<point x="340.6690063477" y="1330.8046264648"/>
			<point x="339.1217651367" y="1248.3338623047" type="qcurve" smooth="yes"/>
			<point x="338.8166503906" y="1196.5592651367"/>
			<point x="522.1449584961" y="993.0145263672"/>
			<point x="747.8276367188" y="854.0982666016" type="qcurve" smooth="yes"/>
			<point x="929.785949707" y="736.991027832"/>
			<point x="1051.0280151367" y="459.9364013672"/>
			<point x="1040.4097290039" y="361.3541259766" type="qcurve" smooth="yes"/>
			<point x="1027.486328125" y="227.0676879883"/>
			<point x="748.1372680664" y="-24.5157470703"/>
			<point x="454.5692749023" y="-21" type="qcurve" smooth="yes"/>
			<point x="206.0153808594" y="-17.2421264648"/>
			<point x="-66.6972045898" y="193.744934082"/>
			<point x="-54.8093261719" y="352.1356811523" type="qcurve" smooth="yes"/>
			<point x="-41.4057006836" y="541.1279907227"/>
			<point x="330.2254638672" y="808.4929199219"/>
		</contour>
	</outline>
</glyph>
<glyph name="nine" format="2">
	<unicode hex="0039"/>
	<advance width="1046"/>
	<outline>
		<contour>
			<point x="-195.2006835938" y="-67.7498168945" type="qcurve"/>
			<point x="-231.7229614258" y="28.7056274414" type="line"/>
			<point x="207.2001342773" y="94.2385253906"/>
			<point x="825.2435302734" y="651.6614990234"/>
			<point x="843.6504516602" y="1024.6960449219" type="qcurve" smooth="yes"/>
			<point x="858.7328491211" y="1293.8729248047"/>
			<point x="725.0803222656" y="1415.9542236328"/>
			<point x="588.6522216797" y="1416.1963500977" type="qcurve" smooth="yes"/>
			<point x="431.7650146484" y="1416.6806030273"/>
			<point x="229.7546386719" y="1179.883605957"/>
			<point x="210.4320068359" y="998.0986938477" type="qcurve" smooth="yes"/>
			<point x="196.0154418945" y="886.9024658203"/>
			<point x="311.3973999023" y="761.8016357422"/>
			<point x="443.305847168" y="761.5595092773" type="qcurve" smooth="yes"/>
			<point x="485.9872436523" y="761.3173828125"/>
			<point x="587.2360839844" y="785.9014892578"/>
			<point x="640.5009155273" y="813.3992919922" type="qcurve"/>
			<point x="664.4507446289" y="729.3578491211" type="line"/>
			<point x="615.7412719727" y="685.72265625"/>
			<point x="429.396484375" y="602.5579223633"/>
			<point x="366.0759887695" y="602.8000488281" type="qcurve" smooth="yes"/>
			<point x="221.3729248047" y="603.2843017578"/>
			<point x="41.1754150391" y="808.0473022461"/>
			<point x="50.0592651367" y="989.0070800781" type="qcurve" smooth="yes"/>
			<point x="60.1852416992" y="1231.9710083008"/>
			<point x="402.4423828125" y="1535.4279785156"/>
			<point x="644.1364746094" y="1535.1858520508" type="qcurve" smooth="yes"/>
			<point x="710.5842895508" y="1534.9437255859"/>
			<point x="995.654296875" y="1224.1387329102"/>
			<point x="987.8334350586" y="951.1832275391" type="qcurve" smooth="yes"/>
			<point x="976.7389526367" y="583.0669555664"/>
			<point x="245.6026611328" y="-58.1383056641"/>
		</contour>
	</outline>
</glyph>
<glyph name="A" format="2">
	<unicode hex="0041"/>
	<advance width="1380"/>
	<outline>
		<contour>
			<point x="-173.2918701172" y="0" type="line"/>
			<point x="-168.104675293" y="98.0002441406" type="line"/>
			<point x="51.6299438477" y="118.0002441406" type="line"/>
			<point x="253.7135009766" y="601.3894042969" type="line"/>
			<point x="725.2272949219" y="1500" type="line"/>
			<point x="951.4468383789" y="1500" type="line"/>
			<point x="988.6754150391" y="722" type="line"/>
			<point x="1036.5143432617" y="114.0002441406" type="line"/>
			<point x="1245.0316772461" y="99.0002441406" type="line"/>
			<point x="1232.3679199219" y="0" type="line"/>
			<point x="596.1487426758" y="0" type="line"/>
			<point x="618.8125" y="99.0002441406" type="line"/>
			<point x="846.3298339844" y="121.0002441406" type="line"/>
			<point x="807.7757568359" y="668" type="line"/>
			<point x="777.5375976562" y="1172.8385620117" type="line"/>
			<point x="763.4385986328" y="1332.9989624023" type="line"/>
			<point x="748.4385986328" y="1328.9989624023" type="line"/>
			<point x="660.5419921875" y="1162.4013061523" type="line"/>
			<point x="350.3028564453" y="554.3330078125" type="line"/>
			<point x="196.8001098633" y="117.0002441406" type="line"/>
			<point x="457.5779418945" y="98.0002441406" type="line"/>
			<point x="458.3907470703" y="0" type="line"/>
		</contour>
		<contour>
			<point x="275.5844726562" y="512.9431152344" type="line"/>
			<point x="319.0563964844" y="625.66796875" type="line"/>
			<point x="530.6099853516" y="616.3344726562" type="line"/>
			<point x="511.6094970703" y="516.0544433594" type="line"/>
		</contour>
		<contour>
			<point x="535.0106201172" y="616.3344726562" type="line"/>
			<point x="1020.4707641602" y="625.5012207031" type="line"/>
			<point x="1016.2929077148" y="515.2766113281" type="line"/>
			<point x="515.0101318359" y="516.0544433594" type="line"/>
		</contour>
	</outline>
	<anchor name="bottom" x="523" y="0"/>
	<anchor name="ogonek" x="1098" y="0"/>
	<anchor name="top" x="954" y="1500"/>
	<anchor name="tonos" x="613" y="1500"/>
</glyph>
<glyph name="C" format="2">
	<unicode hex="0043"/>
	<advance width="1274"/>
	<outline>
		<contour>
			<point x="95.2220532455" y="817" type="qcurve" smooth="yes"/>
			<point x="164.2220532455" y="1191"/>
			<point x="774.6010815658" y="1550.6170654297"/>
			<point x="980.0615918197" y="1519.9338378906" type="qcurve" smooth="yes"/>
			<point x="1050.7619092026" y="1511.1678466797"/>
			<point x="1231.0969856825" y="1408.4253540039"/>
			<point x="1235.8742073622" y="1372.7944335938" type="qcurve"/>
			<point x="1277.0219734755" y="1484.9591674805" type="line"/>
			<point x="1357.0194099989" y="1481.3309326172" type="line"/>
			<point x="1253.3834236708" y="1022.0347900391" type="line"/>
			<point x="1136.7821053114" y="1022.0347900391" type="line"/>
			<point x="1123.3790901747" y="1075.0947265625" type="line"/>
			<point x="1175.4100349989" y="1239.364440918"/>
			<point x="1052.7773445693" y="1391.5523071289"/>
			<point x="892.2437141982" y="1407.5969238281" type="qcurve" smooth="yes"/>
			<point x="680.8925179091" y="1429.7249145508"/>
			<point x="389.8407055893" y="1169"/>
			<point x="305.2296216049" y="801" type="qcurve" smooth="yes"/>
			<point x="221.2022168197" y="436"/>
			<point x="313.0538948622" y="139.0734863281"/>
			<point x="510.433106288" y="114.591796875" type="qcurve" smooth="yes"/>
			<point x="742.70147787" y="85.1134033203"/>
			<point x="1048.9916455307" y="227.5576171875"/>
			<point x="1119.1489941635" y="354.8901367188" type="qcurve"/>
			<point x="1187.3710400619" y="321.9455566406" type="line"/>
			<point x="1191.2338940658" y="252.7768554688" type="line"/>
			<point x="1150.5347908583" y="122.6406860352"/>
			<point x="857.4617317763" y="-48.6232910156"/>
			<point x="603.4483716049" y="-17.8005371094" type="qcurve" smooth="yes"/>
			<point x="272.0098340072" y="22.1047363281"/>
			<point x="29.4690014877" y="466"/>
		</contour>
	</outline>
	<anchor name="bottom" x="596" y="0"/>
	<anchor name="top" x="906" y="1500"/>
</glyph>
<glyph name="F" format="2">
	<unicode hex="0046"/>
	<advance width="1223"/>
	<outline>
		<contour>
			<point x="-69.2699584961" y="0" type="line"/>
			<point x="-51.9099121094" y="99.0002441406" type="line"/>
			<point x="135.9165649414" y="117.0002441406" type="line"/>
			<point x="293.1165161133" y="813" type="line"/>
			<point x="409.4364624023" y="1380.8397216797" type="line"/>
			<point x="209.1840820312" y="1391.8397216797" type="line"/>
			<point x="221.165222168" y="1500" type="line"/>
			<point x="1274.3361206055" y="1500" type="line"/>
			<point x="1218.8822631836" y="1130.6937255859" type="line"/>
			<point x="1119.8811645508" y="1130.6937255859" type="line"/>
			<point x="1063.9456176758" y="1405.7194824219" type="line"/>
			<point x="610.3807983398" y="1405.7194824219" type="line"/>
			<point x="567.3807983398" y="1383.7194824219" type="line"/>
			<point x="436.7702026367" y="767" type="line"/>
			<point x="299.5702514648" y="116.0002441406" type="line"/>
			<point x="554.2550048828" y="99.0002441406" type="line"/>
			<point x="535.1992797852" y="0" type="line"/>
		</contour>
		<contour>
			<point x="238.3217163086" y="689.1098632812" type="line"/>
			<point x="257.3222045898" y="768.0568847656" type="line"/>
			<point x="861.6129760742" y="790.3903808594" type="line"/>
			<point x="968.0722045898" y="958.6865234375" type="line"/>
			<point x="1058.073425293" y="958.6865234375" type="line"/>
			<point x="962.5717773438" y="498.7023925781" type="line"/>
			<point x="872.5705566406" y="498.7023925781" type="line"/>
			<point x="838.0568237305" y="683.9985351562" type="line"/>
		</contour>
	</outline>
	<anchor name="bottom" x="578" y="0"/>
	<anchor name="top" x="622" y="1500"/>
</glyph>
<glyph name="G" format="2">
	<unicode hex="0047"/>
	<advance width="1492"/>
	<outline>
		<contour>
			<point x="97.2831420898" y="817" type="qcurve" smooth="yes"/>
			<point x="184.2831420898" y="1208"/>
			<point x="627.8092041016" y="1567.2487182617"/>
			<point x="924.5819702148" y="1522.9338378906" type="qcurve" smooth="yes"/>
			<point x="1078.6370849609" y="1502.9886474609"/>
			<point x="1257.6779174805" y="1386.7232666016"/>
			<point x="1280.1755981445" y="1355.2668457031" type="qcurve" smooth="yes"/>
			<point x="1321.0602014563" y="1483.6000976562" type="line"/>
			<point x="1404.4318445227" y="1484" type="line"/>
			<point x="1288.5904138586" y="938.5891113281" type="line"/>
			<point x="1172.9890954992" y="938.5891113281" type="line"/>
			<point x="1155.1187341711" y="1079.2287597656" type="line"/>
			<point x="1152.9915771484" y="1206.2743530273"/>
			<point x="1003.1866455078" y="1385.0545654297"/>
			<point x="822.5877075195" y="1405.3747558594" type="qcurve" smooth="yes"/>
			<point x="604.0051269531" y="1435.1564331055"/>
			<point x="386.2633056641" y="1196"/>
			<point x="311.2907104492" y="839" type="qcurve" smooth="yes"/>
			<point x="227.2907104492" y="439.3889160156"/>
			<point x="379.8024902344" y="125.7357788086"/>
			<point x="574.5295410156" y="97.1474609375" type="qcurve" smooth="yes"/>
			<point x="683.9359130859" y="81.0629272461"/>
			<point x="873.8886108398" y="106.2810058594"/>
			<point x="923.4680786133" y="137.2260742188" type="qcurve"/>
			<point x="1015.1977136633" y="548.1197509766" type="line"/>
			<point x="837.7658288977" y="577.559753418" type="line"/>
			<point x="853.9156091711" y="677" type="line"/>
			<point x="1382.5145471594" y="677" type="line"/>
			<point x="1363.876119425" y="577.1197509766" type="line"/>
			<point x="1188.2391565344" y="548.1197509766" type="line"/>
			<point x="1107.0392053625" y="182" type="line"/>
			<point x="1100.7955322266" y="168" type="line"/>
			<point x="980.5956420898" y="56.9177856445"/>
			<point x="721.1812133789" y="-40.8005371094"/>
			<point x="572.4152832031" y="-16.8005371094" type="qcurve" smooth="yes"/>
			<point x="297.5941772461" y="23.8432006836"/>
			<point x="20.2831420898" y="470"/>
		</contour>
	</outline>
	<anchor name="bottom" x="667" y="0"/>
	<anchor name="top" x="907" y="1492"/>
</glyph>
<glyph name="K" format="2">
	<unicode hex="004B"/>
	<advance width="1260"/>
	<outline>
		<contour>
			<point x="-65.0874023438" y="0" type="line"/>
			<point x="-55.1705932617" y="99.0002441406" type="line"/>
			<point x="136.3547973633" y="114.0002441406" type="line"/>
			<point x="291.9947509766" y="790" type="line"/>
			<point x="416.3146972656" y="1378.8397216797" type="line"/>
			<point x="210.323425293" y="1390.8397216797" type="line"/>
			<point x="221.0002441406" y="1500" type="line"/>
			<point x="794.3052368164" y="1500" type="line"/>
			<point x="781.6284179688" y="1390.8397216797" type="line"/>
			<point x="578.499206543" y="1378.8397216797" type="line"/>
			<point x="454.1792602539" y="773" type="line"/>
			<point x="308.5393066406" y="117.0002441406" type="line"/>
			<point x="513.6560058594" y="99.0002441406" type="line"/>
			<point x="500.7391967773" y="0" type="line"/>
		</contour>
		<contour>
			<point x="477.9172973633" y="646.9379272461" type="line"/>
			<point x="501.3798217773" y="803.1561279297" type="line"/>
			<point x="1013.2457885742" y="1370.8397216797" type="line"/>
			<point x="754.826171875" y="1391.8397216797" type="line"/>
			<point x="771.5029907227" y="1500" type="line"/>
			<point x="1464.1520385742" y="1500" type="line"/>
			<point x="1447.4752197266" y="1391.8397216797" type="line"/>
			<point x="1183.6497192383" y="1369.8397216797" type="line"/>
		</contour>
		<contour>
			<point x="522.032043457" y="834.895690918" type="line"/>
			<point x="700.1533203125" y="970.7955322266" type="line"/>
			<point x="1010.7583618164" y="115.0002441406" type="line"/>
			<point x="1201.7454223633" y="99.0002441406" type="line"/>
			<point x="1191.8286132812" y="0" type="line"/>
			<point x="570.8693237305" y="0" type="line"/>
			<point x="584.7861328125" y="99.0002441406" type="line"/>
			<point x="763.5738525391" y="113.0002441406" type="line"/>
		</contour>
	</outline>
	<anchor name="bottom" x="607" y="0"/>
	<anchor name="top" x="896" y="1500"/>
	<anchor name="kai_tail" x="1201" y="100"/>
</glyph>
<glyph name="L" format="2">
	<unicode hex="004C"/>
	<advance width="1177"/>
	<outline>
		<contour>
			<point x="-61.5134887695" y="0" type="line"/>
			<point x="-51.852355957" y="99.0002441406" type="line"/>
			<point x="141.2330322266" y="110.0002441406" type="line"/>
			<point x="299.8729858398" y="796" type="line"/>
			<point x="419.1929321289" y="1379.2797241211" type="line"/>
			<point x="205.294128418" y="1390.2797241211" type="line"/>
			<point x="217.5309448242" y="1500" type="line"/>
			<point x="803.0733642578" y="1500" type="line"/>
			<point x="789.8365478516" y="1390.2797241211" type="line"/>
			<point x="572.572265625" y="1379.2797241211" type="line"/>
			<point x="443.2523193359" y="768" type="line"/>
			<point x="307.0306396484" y="129.2805175781" type="line"/>
			<point x="334.0306396484" y="95.2805175781" type="line"/>
			<point x="803.8247680664" y="95.2805175781" type="line"/>
			<point x="1047.6350708008" y="464.1427612305" type="line"/>
			<point x="1157.8364257812" y="464.1427612305" type="line"/>
			<point x="1014.9692382812" y="0" type="line"/>
		</contour>
	</outline>
	<anchor name="bottom" x="535" y="0"/>
	<anchor name="centerright" x="755" y="750"/>
	<anchor name="top" x="878" y="1500"/>
	<anchor name="topright" x="804" y="1001"/>
	<anchor name="center" x="397" y="750"/>
	<anchor name="liga" x="1104" y="0"/>
</glyph>
<glyph name="M" format="2">
	<unicode hex="004D"/>
	<advance width="1891"/>
	<outline>
		<contour>
			<point x="-64.2210693359" y="0" type="line"/>
			<point x="-56.3042602539" y="99.0002441406" type="line"/>
			<point x="202.3081665039" y="144.0002441406" type="line"/>
			<point x="341.6950683594" y="744" type="line"/>
			<point x="475.7080688477" y="1354.8397216797" type="line"/>
			<point x="224.9286499023" y="1391.8397216797" type="line"/>
			<point x="241.60546875" y="1500" type="line"/>
			<point x="725.0673828125" y="1500" type="line"/>
			<point x="809.03515625" y="681.2728271484" type="line"/>
			<point x="830.4434814453" y="440.5217895508" type="line"/>
			<point x="857.6790771484" y="221.299987793" type="line"/>
			<point x="858.6790771484" y="221.299987793" type="line"/>
			<point x="971.8774414062" y="440.5217895508" type="line"/>
			<point x="1218.9331054688" y="935.7084960938" type="line"/>
			<point x="1503.9893798828" y="1500" type="line"/>
			<point x="1948.2319946289" y="1500" type="line"/>
			<point x="1928.6005859375" y="1390.8397216797" type="line"/>
			<point x="1708.8611450195" y="1370.8397216797" type="line"/>
			<point x="1570.5411987305" y="724" type="line"/>
			<point x="1441.9012451172" y="124.0002441406" type="line"/>
			<point x="1661.8438720703" y="99.0002441406" type="line"/>
			<point x="1649.9270629883" y="0" type="line"/>
			<point x="1060.3408203125" y="0" type="line"/>
			<point x="1068.2576293945" y="99.0002441406" type="line"/>
			<point x="1283.5219116211" y="124.0002441406" type="line"/>
			<point x="1419.1618652344" y="737.2743530273" type="line"/>
			<point x="1523.0014648438" y="1219.8854370117" type="line"/>
			<point x="1561.6616210938" y="1408" type="line"/>
			<point x="1560.6616210938" y="1408" type="line"/>
			<point x="1464.0125732422" y="1213.259765625" type="line"/>
			<point x="1277.2738037109" y="835.6149902344" type="line"/>
			<point x="820.5239868164" y="0" type="line"/>
			<point x="753.8929443359" y="0" type="line"/>
			<point x="669.2794799805" y="721.3546142578" type="line"/>
			<point x="612.6000976562" y="1216.3583984375" type="line"/>
			<point x="592.6175537109" y="1396.6110839844" type="line"/>
			<point x="591.6175537109" y="1395.8332519531" type="line"/>
			<point x="556.2718505859" y="1219.8332519531" type="line"/>
			<point x="440.3953857422" y="733" type="line"/>
			<point x="309.1443481445" y="144.0002441406" type="line"/>
			<point x="559.704284668" y="99.0002441406" type="line"/>
			<point x="547.3442382812" y="0" type="line"/>
		</contour>
	</outline>
	<anchor name="bottom" x="768" y="0"/>
	<anchor name="top" x="1048" y="1500"/>
</glyph>
<glyph name="N" format="2">
	<unicode hex="004E"/>
	<advance width="1598"/>
	<outline>
		<contour>
			<point x="-89.965637207" y="0" type="line"/>
			<point x="-83.048828125" y="99.0002441406" type="line"/>
			<point x="168.9165649414" y="143.0002441406" type="line"/>
			<point x="308.1165161133" y="753" type="line"/>
			<point x="443.8764648438" y="1358.8397216797" type="line"/>
			<point x="193.4884033203" y="1392.8397216797" type="line"/>
			<point x="208.165222168" y="1500" type="line"/>
			<point x="814.5186157227" y="1500" type="line"/>
			<point x="944.3929443359" y="789.5097045898" type="line"/>
			<point x="1017.2301635742" y="330.614074707" type="line"/>
			<point x="1043.4973144531" y="212.5749511719" type="line"/>
			<point x="1044.4973144531" y="212.5749511719" type="line"/>
			<point x="1072.8340454102" y="340.8493041992" type="line"/>
			<point x="1161.2178955078" y="746" type="line"/>
			<point x="1291.5378417969" y="1354.3997192383" type="line"/>
			<point x="1033.2319946289" y="1391.3997192383" type="line"/>
			<point x="1051.7017822266" y="1500" type="line"/>
			<point x="1661.0224609375" y="1500" type="line"/>
			<point x="1654.5526733398" y="1389.3997192383" type="line"/>
			<point x="1387.6516113281" y="1354.3997192383" type="line"/>
			<point x="1256.3316650391" y="748" type="line"/>
			<point x="1102.3316650391" y="0" type="line"/>
			<point x="891.8145751953" y="0" type="line"/>
			<point x="740.2406616211" y="803.6551513672" type="line"/>
			<point x="601.5658569336" y="1373.7759399414" type="line"/>
			<point x="573.2735595703" y="1492.7991333008" type="line"/>
			<point x="572.2735595703" y="1492.7991333008" type="line"/>
			<point x="543.9437866211" y="1360.5247802734" type="line"/>
			<point x="407.8413696289" y="743" type="line"/>
			<point x="272.2014160156" y="143.0002441406" type="line"/>
			<point x="520.4483642578" y="99.0002441406" type="line"/>
			<point x="511.5315551758" y="0" type="line"/>
		</contour>
	</outline>
	<anchor name="bottom" x="640" y="0"/>
	<anchor name="top" x="884" y="1500"/>
	<anchor name="engtail" x="1041" y="0"/>
	<anchor name="liga" x="1432" y="0"/>
</glyph>
<glyph name="S" format="2">
	<unicode hex="0053"/>
	<advance width="1202"/>
	<outline>
		<contour>
			<point x="-42.8942871094" y="6.1519775391" type="line"/>
			<point x="67.4839477539" y="486.4099121094" type="line"/>
			<point x="158.2852172852" y="486.4099121094" type="line"/>
			<point x="179.0701293945" y="336.1137695312" type="line" smooth="yes"/>
			<point x="195.9576416016" y="209.8916015625"/>
			<point x="333.2747802734" y="78.669921875"/>
			<point x="548.576965332" y="78.669921875" type="qcurve" smooth="yes"/>
			<point x="656.8603515625" y="78.669921875"/>
			<point x="873.9879150391" y="164.9719238281"/>
			<point x="903.9879150391" y="269.0196533203" type="qcurve" smooth="yes"/>
			<point x="935.9879150391" y="405.8303222656"/>
			<point x="777.1860961914" y="606.668762207"/>
			<point x="543.274597168" y="718.8017578125" type="qcurve" smooth="yes"/>
			<point x="342.6627197266" y="812.8535766602"/>
			<point x="182.201171875" y="1097.9091796875"/>
			<point x="224.201171875" y="1274.1571655273" type="qcurve" smooth="yes"/>
			<point x="267.201171875" y="1380.7515258789"/>
			<point x="551.2436523438" y="1529"/>
			<point x="741.1325683594" y="1529" type="qcurve" smooth="yes"/>
			<point x="908.7463989258" y="1529"/>
			<point x="1111.796081543" y="1455.7131958008"/>
			<point x="1113.0388793945" y="1441.3787231445" type="qcurve"/>
			<point x="1179.9683837891" y="1506.6482543945" type="line"/>
			<point x="1271.9694824219" y="1492.048034668" type="line"/>
			<point x="1169.8134155273" y="1042.2836303711" type="line"/>
			<point x="1066.8120117188" y="1042.2836303711" type="line"/>
			<point x="1055.4159545898" y="1191.9528808594" type="line"/>
			<point x="1050.81640625" y="1309.9526977539"/>
			<point x="883.1628417969" y="1418.2746582031"/>
			<point x="720.786315918" y="1418.2746582031" type="qcurve" smooth="yes"/>
			<point x="629.8298950195" y="1418.2746582031"/>
			<point x="436.8773193359" y="1331.5932006836"/>
			<point x="417.8773193359" y="1217.5315551758" type="qcurve" smooth="yes"/>
			<point x="397.8773193359" y="1083.9047851562"/>
			<point x="554.1605834961" y="946.6936645508"/>
			<point x="742.537902832" y="840.0949707031" type="qcurve" smooth="yes"/>
			<point x="1013.426574707" y="705.6436157227"/>
			<point x="1161.932434082" y="448.2762451172"/>
			<point x="1111.2067871094" y="287.514831543" type="qcurve" smooth="yes"/>
			<point x="1058.4811401367" y="122.9303588867"/>
			<point x="790.0385742188" y="-32"/>
			<point x="555.0255126953" y="-32" type="qcurve" smooth="yes"/>
			<point x="325.5923461914" y="-32"/>
			<point x="143.2777099609" y="71.3870849609"/>
			<point x="136.6362915039" y="93.1994628906" type="qcurve"/>
			<point x="46.0797729492" y="-16.4482421875" type="line"/>
		</contour>
	</outline>
	<anchor name="bottom" x="399" y="0"/>
	<anchor name="top" x="679" y="1500"/>
</glyph>
<glyph name="U" format="2">
	<unicode hex="0055"/>
	<advance width="1701"/>
	<outline>
		<contour>
			<point x="198.2708129883" y="1391.8397216797" type="line"/>
			<point x="210.6919555664" y="1500" type="line"/>
			<point x="777.4154052734" y="1500" type="line"/>
			<point x="762.9942626953" y="1391.8397216797" type="line"/>
			<point x="551.8596191406" y="1378.8397216797" type="line"/>
			<point x="433.4196777344" y="794" type="line" smooth="yes"/>
			<point x="403.4196777344" y="647"/>
			<point x="354.4196777344" y="348.7971801758"/>
			<point x="354.4196777344" y="244.7971801758" type="qcurve" smooth="yes"/>
			<point x="354.4196777344" y="120.9303588867"/>
			<point x="522.9349365234" y="50.33203125"/>
			<point x="690.1864013672" y="49.33203125" type="qcurve" smooth="yes"/>
			<point x="917.6031494141" y="48.33203125"/>
			<point x="1220.5360717773" y="279.6363525391"/>
			<point x="1280.5768432617" y="574" type="qcurve" smooth="yes"/>
			<point x="1326.5768432617" y="797" type="line"/>
			<point x="1442.7767944336" y="1362.8397216797" type="line"/>
			<point x="1156.4655151367" y="1391.8397216797" type="line"/>
			<point x="1175.8866577148" y="1500" type="line"/>
			<point x="1810.4524536133" y="1500" type="line"/>
			<point x="1797.0313110352" y="1391.8397216797" type="line"/>
			<point x="1550.7334594727" y="1362.8397216797" type="line"/>
			<point x="1432.6911010742" y="796" type="line"/>
			<point x="1385.4689331055" y="562" type="line" smooth="yes"/>
			<point x="1322.9724121094" y="248.9025878906"/>
			<point x="972.3599243164" y="-26.4663085938"/>
			<point x="670.9365844727" y="-22.4663085938" type="qcurve" smooth="yes"/>
			<point x="447.7822875977" y="-19.4663085938"/>
			<point x="204.6864624023" y="178"/>
			<point x="204.6864624023" y="350" type="qcurve" smooth="yes"/>
			<point x="204.6864624023" y="443"/>
			<point x="244.6864624023" y="660"/>
			<point x="272.6864624023" y="794" type="qcurve" smooth="yes"/>
			<point x="396.4464111328" y="1378.8397216797" type="line"/>
		</contour>
	</outline>
	<anchor name="bottom" x="588" y="0"/>
	<anchor name="ogonek" x="810" y="0"/>
	<anchor name="top" x="908" y="1500"/>
	<anchor name="topright" x="1561" y="1500"/>
</glyph>
<glyph name="Y" format="2">
	<unicode hex="0059"/>
	<advance width="1300"/>
	<outline>
		<contour>
			<point x="142.3884887695" y="0" type="line"/>
			<point x="153.3052978516" y="101.0002441406" type="line"/>
			<point x="389.5695800781" y="116.0002441406" type="line"/>
			<point x="504.177734375" y="641.2922973633" type="line"/>
			<point x="374.9256591797" y="977.1342773438" type="line"/>
			<point x="213.912902832" y="1354.8397216797" type="line"/>
			<point x="-6.213684082" y="1391.8397216797" type="line"/>
			<point x="11.4631347656" y="1500" type="line"/>
			<point x="588.2261352539" y="1500" type="line"/>
			<point x="570.5493164062" y="1391.8397216797" type="line"/>
			<point x="358.2054443359" y="1373.8397216797" type="line"/>
			<point x="487.7172851562" y="1102.6572265625" type="line"/>
			<point x="643.0635986328" y="774.5697631836" type="line"/>
			<point x="644.0635986328" y="774.5697631836" type="line"/>
			<point x="857.7868652344" y="1061.158203125" type="line"/>
			<point x="1066.7294921875" y="1354.8397216797" type="line"/>
			<point x="832.8646240234" y="1391.8397216797" type="line"/>
			<point x="850.5414428711" y="1500" type="line"/>
			<point x="1451.6621704102" y="1500" type="line"/>
			<point x="1432.9853515625" y="1391.8397216797" type="line"/>
			<point x="1185.8587646484" y="1361.8397216797" type="line"/>
			<point x="930.2086181641" y="986.4652099609" type="line"/>
			<point x="666.3447875977" y="616.3273925781" type="line"/>
			<point x="562.2232666016" y="118.0002441406" type="line"/>
			<point x="789.3831787109" y="101.0002441406" type="line"/>
			<point x="774.4663696289" y="0" type="line"/>
		</contour>
	</outline>
	<anchor name="bottom" x="443" y="0"/>
	<anchor name="top" x="731" y="1500"/>
	<anchor name="tonos" x="-13" y="1500"/>
	<anchor name="center" x="553" y="579"/>
</glyph>
<glyph name="Z" format="2">
	<unicode hex="005A"/>
	<advance width="1020"/>
	<outline>
		<contour>
			<point x="-62.0549316406" y="0" type="line"/>
			<point x="-83.1662597656" y="104.3354492188" type="line"/>
			<point x="428.5032958984" y="838.3901367188" type="line"/>
			<point x="785.0316162109" y="1389.8303222656" type="line"/>
			<point x="779.0316162109" y="1396.8303222656" type="line"/>
			<point x="397.1179199219" y="1396.8303222656" type="line"/>
			<point x="238.9857177734" y="1149.7038574219" type="line"/>
			<point x="135.984375" y="1149.7038574219" type="line"/>
			<point x="199.1732177734" y="1500" type="line"/>
			<point x="1002.7337036133" y="1500" type="line"/>
			<point x="983.0112915039" y="1390.4423828125" type="line"/>
			<point x="450.4760131836" y="644.8328857422" type="line"/>
			<point x="102.9783935547" y="105.2805175781" type="line"/>
			<point x="103.9783935547" y="95.2805175781" type="line"/>
			<point x="509.3050537109" y="95.2805175781" type="line"/>
			<point x="722.0131225586" y="408.2961425781" type="line"/>
			<point x="827.8143310547" y="408.2961425781" type="line"/>
			<point x="737.3280639648" y="0" type="line"/>
		</contour>
	</outline>
	<anchor name="bottom" x="383" y="0"/>
	<anchor name="top" x="643" y="1500"/>
	<anchor name="_liga" x="0" y="0"/>
</glyph>
<glyph name="a" format="2">
	<unicode hex="0061"/>
	<advance width="1136"/>
	<outline>
		<contour>
			<point x="-1.2513427734" y="278" type="qcurve" smooth="yes"/>
			<point x="5.7486572266" y="612.6752929688"/>
			<point x="494.32087447" y="1029.6748046875"/>
			<point x="600.0901005442" y="1029.6748046875" type="qcurve" smooth="yes"/>
			<point x="721.2732670482" y="1029.6748046875"/>
			<point x="818.0648803711" y="977.6748046875"/>
			<point x="855.0137329102" y="948.6748046875" type="qcurve"/>
			<point x="915.2584838867" y="1011.6748046875" type="line"/>
			<point x="998.689453125" y="1004.6748046875" type="line"/>
			<point x="1045.4570439036" y="920.6748046875" type="line"/>
			<point x="916.6406986888" y="448" type="line"/>
			<point x="865.0890629466" y="211" type="line"/>
			<point x="857.7207768138" y="147"/>
			<point x="891.8986332591" y="37"/>
			<point x="933.2057621653" y="0" type="qcurve"/>
			<point x="683.1726911117" y="-18" type="line"/>
			<point x="659.0381696273" y="23.6828613281"/>
			<point x="641.7278058578" y="144.0458984375"/>
			<point x="653.3487165023" y="217.8090820312" type="qcurve"/>
			<point x="563.7972028305" y="108.9691772461"/>
			<point x="353.8149640609" y="-5"/>
			<point x="221.9012067367" y="-5" type="qcurve" smooth="yes"/>
			<point x="107.4027936508" y="-5"/>
			<point x="-4.2513427734" y="133"/>
		</contour>
		<contour>
			<point x="185.823059082" y="339" type="qcurve" smooth="yes"/>
			<point x="175.823059082" y="221"/>
			<point x="276.7813236888" y="142.2076416016"/>
			<point x="348.5080082591" y="142.2076416016" type="qcurve" smooth="yes"/>
			<point x="489.006421345" y="142.2076416016"/>
			<point x="689.8991825755" y="313.9053344727"/>
			<point x="732.9004132797" y="493.2076416016" type="qcurve" smooth="yes"/>
			<point x="826.2052738841" y="864.7702636719" type="line"/>
			<point x="809.9696655273" y="881.7702636719"/>
			<point x="707.0766117747" y="939.7702636719"/>
			<point x="623.9666264232" y="939.7702636719" type="qcurve" smooth="yes"/>
			<point x="461.6417973216" y="939.7702636719"/>
			<point x="200.823059082" y="526.6752929688"/>
		</contour>
	</outline>
	<anchor name="bottom" x="345" y="0"/>
	<anchor name="ogonek" x="732" y="0"/>
	<anchor name="top" x="608" y="1000"/>
</glyph>
<glyph name="b" format="2">
	<unicode hex="0062"/>
	<advance width="1066"/>
	<outline>
		<contour>
			<point x="78.5549648804" y="395" type="qcurve" smooth="yes"/>
			<point x="123.5549648804" y="594" type="line"/>
			<point x="291.1460293336" y="1446.5913085938" type="line"/>
			<point x="176.9928310914" y="1434.5913085938" type="line"/>
			<point x="194.9017666382" y="1535.5" type="line"/>
			<point x="423.1990688843" y="1600.5" type="line"/>
			<point x="453.1990688843" y="1537.5" type="line"/>
			<point x="241.6990688843" y="556" type="line"/>
			<point x="176.6990688843" y="233" type="line" smooth="yes"/>
			<point x="154.4198330445" y="125.5107421875"/>
			<point x="264.4365566773" y="58.9745483398"/>
			<point x="355.1017788453" y="60.9745483398" type="qcurve" smooth="yes"/>
			<point x="522.8767422242" y="64.9745483398"/>
			<point x="799.5785244507" y="433.0266113281"/>
			<point x="799.9468105836" y="624.8100585938" type="qcurve" smooth="yes"/>
			<point x="799.9468105836" y="724.0431518555"/>
			<point x="711.3709438843" y="824.4170532227"/>
			<point x="615.7853115601" y="824.4170532227" type="qcurve" smooth="yes"/>
			<point x="528.6266201539" y="824.4170532227"/>
			<point x="311.5144375367" y="712.4102783203"/>
			<point x="224.9765957398" y="657.7109985352" type="qcurve"/>
			<point x="214.9685390992" y="746.5387573242" type="line"/>
			<point x="273.8047207398" y="809.4420776367"/>
			<point x="642.3959682984" y="1019.8100585938"/>
			<point x="759.0253628296" y="1019.8100585938" type="qcurve" smooth="yes"/>
			<point x="853.5957363648" y="1019.8100585938"/>
			<point x="971.4131802125" y="827.8100585938"/>
			<point x="971.2290371461" y="671.8100585938" type="qcurve" smooth="yes"/>
			<point x="970.8607510132" y="373.0266113281"/>
			<point x="540.3606899781" y="-19"/>
			<point x="391.6382778687" y="-19" type="qcurve" smooth="yes"/>
			<point x="154.613009314" y="-19"/>
			<point x="33.5549648804" y="198"/>
		</contour>
	</outline>
	<anchor name="bottom" x="571" y="0"/>
	<anchor name="top" x="571" y="1533"/>
</glyph>
<glyph name="c" format="2">
	<unicode hex="0063"/>
	<advance width="917"/>
	<outline>
		<contour>
			<point x="4.0827636719" y="503.7292480469" type="qcurve" smooth="yes"/>
			<point x="26.2448730469" y="736.3776855469"/>
			<point x="418.3092041016" y="1053.3256835938"/>
			<point x="613.8282470703" y="1053.3256835938" type="qcurve" smooth="yes"/>
			<point x="773.2413330078" y="1053.3256835938"/>
			<point x="936.0567626953" y="897.3698730469"/>
			<point x="936.0567626953" y="790.5701293945" type="qcurve" smooth="yes"/>
			<point x="936.0567626953" y="707.2147827148"/>
			<point x="871.443359375" y="597.5262451172"/>
			<point x="810.7108764648" y="572.3707275391" type="qcurve"/>
			<point x="781.5030517578" y="614.3707275391" type="line"/>
			<point x="781.5030517578" y="774.3707275391" type="line" smooth="yes"/>
			<point x="781.5030517578" y="840.3707275391"/>
			<point x="724.2073364258" y="930.2379150391"/>
			<point x="619.5003662109" y="930.2379150391" type="qcurve" smooth="yes"/>
			<point x="461.2905273438" y="930.2379150391"/>
			<point x="205.6596679688" y="714.7409667969"/>
			<point x="187.4338378906" y="483.7292480469" type="qcurve" smooth="yes"/>
			<point x="172.9899291992" y="293.0874633789"/>
			<point x="262.501159668" y="118.6649780273"/>
			<point x="361.8294677734" y="118.6649780273" type="qcurve" smooth="yes"/>
			<point x="542.3051757812" y="118.6649780273"/>
			<point x="776.3222045898" y="238.7102661133"/>
			<point x="827.0424194336" y="314.5551757812" type="qcurve"/>
			<point x="863.8260498047" y="274.5112915039" type="line"/>
			<point x="866.8260498047" y="234.1337890625" type="line"/>
			<point x="803.7214355469" y="133.2803955078"/>
			<point x="534.0021362305" y="-20.8671875"/>
			<point x="342.5889282227" y="-20.8671875" type="qcurve" smooth="yes"/>
			<point x="155.9420166016" y="-20.8671875"/>
			<point x="-17.8090820312" y="273.8916015625"/>
		</contour>
	</outline>
	<anchor name="bottom" x="343" y="0"/>
	<anchor name="top" x="600" y="1000"/>
</glyph>
<glyph name="d" format="2">
	<unicode hex="0064"/>
	<advance width="1152"/>
	<outline>
		<contour>
			<point x="14.0089506816" y="308.7026367188" type="qcurve" smooth="yes"/>
			<point x="14.5658230111" y="610.6752929688"/>
			<point x="422.8539699838" y="990.2261352539"/>
			<point x="648.9942287728" y="1003.8640136719" type="qcurve" smooth="yes"/>
			<point x="831.2141994759" y="1003.8640136719" type="line"/>
			<point x="915.4349636361" y="1430.227722168" type="line"/>
			<point x="769.89547389" y="1426.0913085938" type="line"/>
			<point x="786.8044094369" y="1530" type="line"/>
			<point x="1085.3766750619" y="1602" type="line"/>
			<point x="1120.3766750619" y="1545" type="line"/>
			<point x="899.8766750619" y="469" type="line"/>
			<point x="844.0129665658" y="157.3176879883" type="line"/>
			<point x="1020.0298733041" y="170.3176879883" type="line"/>
			<point x="1017.0298733041" y="87" type="line"/>
			<point x="712.6994289681" y="-18" type="line"/>
			<point x="652.6994289681" y="2" type="line"/>
			<point x="634.5363430306" y="215.651550293" type="line"/>
			<point x="586.5418361947" y="119.0700073242"/>
			<point x="364.3625149056" y="-5"/>
			<point x="249.9673733041" y="-5" type="qcurve" smooth="yes"/>
			<point x="138.0638088509" y="-5"/>
			<point x="13.8248076152" y="135.6215820312"/>
		</contour>
		<contour>
			<point x="191.9800810527" y="335.7026367188" type="qcurve" smooth="yes"/>
			<point x="191.8003811166" y="242.7189941406"/>
			<point x="275.8655666634" y="148.346862793"/>
			<point x="353.550564222" y="148.346862793" type="qcurve" smooth="yes"/>
			<point x="467.6799587533" y="148.346862793"/>
			<point x="659.9440578744" y="294"/>
			<point x="703.4576076791" y="467" type="qcurve" smooth="yes"/>
			<point x="807.0519069955" y="876.7502441406" type="line"/>
			<point x="778.0519069955" y="881.7502441406"/>
			<point x="667.9441189095" y="880.7502441406"/>
			<point x="622.7271999642" y="878.7502441406" type="qcurve" smooth="yes"/>
			<point x="429.6464504525" y="870.7502441406"/>
			<point x="192.3483671855" y="558.6752929688"/>
		</contour>
	</outline>
	<anchor name="bottom" x="604" y="0"/>
	<anchor name="center" x="876" y="1202"/>
	<anchor name="top" x="704" y="1534"/>
	<anchor name="topright" x="1076" y="1000"/>
	<anchor name="liga" x="1067" y="0"/>
</glyph>
<glyph name="e" format="2">
	<unicode hex="0065"/>
	<advance width="952"/>
	<outline>
		<contour>
			<point x="-0.1334228516" y="499.2158203125" type="qcurve" smooth="yes"/>
			<point x="23.4881591797" y="733.2966308594"/>
			<point x="389.1666870117" y="1055.2692871094"/>
			<point x="586.2092895508" y="1055.2692871094" type="qcurve" smooth="yes"/>
			<point x="724.6131591797" y="1055.2692871094"/>
			<point x="912.5746459961" y="910.9373779297"/>
			<point x="915.6650390625" y="799.1940307617" type="qcurve" smooth="yes"/>
			<point x="903.0062866211" y="759.5802001953"/>
			<point x="895.1146240234" y="678.7389526367"/>
			<point x="896.7840576172" y="646.4587402344" type="qcurve"/>
			<point x="948.7840576172" y="640.4587402344" type="line"/>
			<point x="916.1102294922" y="533.9487915039" type="line"/>
			<point x="931.8149414062" y="537.9487915039"/>
			<point x="650.3051757812" y="540.1901855469"/>
			<point x="625.6024169922" y="539.9487915039" type="qcurve" smooth="yes"/>
			<point x="220.1259155273" y="533.9487915039" type="line"/>
			<point x="231.008972168" y="629.4587402344" type="line"/>
			<point x="569.2420654297" y="636.4587402344" type="line"/>
			<point x="577.2114257812" y="667.5397949219"/>
			<point x="584.8752441406" y="719.8886108398"/>
			<point x="595.5679931641" y="768.0715942383" type="qcurve" smooth="yes"/>
			<point x="607.6950073242" y="842.213684082"/>
			<point x="560.0877075195" y="950.2947387695"/>
			<point x="524.5806884766" y="950.2947387695" type="qcurve" smooth="yes"/>
			<point x="419.2705688477" y="950.2947387695"/>
			<point x="230.9575805664" y="734.8551025391"/>
			<point x="193.5252075195" y="518.7742919922" type="qcurve" smooth="yes"/>
			<point x="160.1738891602" y="326.7474365234"/>
			<point x="230.9650878906" y="113.2509155273"/>
			<point x="349.4509277344" y="98.9984130859" type="qcurve" smooth="yes"/>
			<point x="496.6124267578" y="84.0212402344"/>
			<point x="730.9136352539" y="223.6470947266"/>
			<point x="781.8397216797" y="316.5787353516" type="qcurve"/>
			<point x="815.8138427734" y="276.0700073242" type="line"/>
			<point x="823.8599853516" y="231.0918579102" type="line"/>
			<point x="725.2705688477" y="102.473449707"/>
			<point x="472.7107543945" y="-25.9371948242"/>
			<point x="307.9694213867" y="-23" type="qcurve" smooth="yes"/>
			<point x="231.3423461914" y="-24.9254760742"/>
			<point x="-22.6739501953" y="269.7294921875"/>
		</contour>
	</outline>
	<anchor name="bottom" x="339" y="0"/>
	<anchor name="ogonek" x="495" y="0"/>
	<anchor name="top" x="601" y="1000"/>
</glyph>
<glyph name="f" format="2">
	<unicode hex="0066"/>
	<advance width="429"/>
	<outline>
		<contour>
			<point x="-544.8706665039" y="-366.8021240234" type="line" smooth="yes"/>
			<point x="-520.6044921875" y="-252.2291870117" type="line"/>
			<point x="-386.4546508789" y="-249.3656005859" type="line" smooth="yes"/>
			<point x="-185.4546508789" y="-245.5750732422"/>
			<point x="-3.1754150391" y="12.5155639648"/>
			<point x="59.8245849609" y="427.5155639648" type="qcurve" smooth="yes"/>
			<point x="129.8421020508" y="884.6795654297" type="line"/>
			<point x="129.3536376953" y="897.5395507812" type="line"/>
			<point x="164.2659912109" y="1115.5" type="line" smooth="yes"/>
			<point x="199.5362548828" y="1343.5"/>
			<point x="441.2767333984" y="1613.5"/>
			<point x="581.8154907227" y="1612.5" type="qcurve" smooth="yes"/>
			<point x="707.1924438477" y="1611.5"/>
			<point x="816.5114135742" y="1508.5"/>
			<point x="813.5114135742" y="1398.5" type="qcurve" smooth="yes"/>
			<point x="811.5114135742" y="1314.5"/>
			<point x="706.5454101562" y="1229.5"/>
			<point x="648.4068603516" y="1229.5" type="qcurve" smooth="yes"/>
			<point x="650.4068603516" y="1257.5"/>
			<point x="663.4068603516" y="1368.5"/>
			<point x="663.4068603516" y="1411.5" type="qcurve" smooth="yes"/>
			<point x="663.4068603516" y="1445.8969726562"/>
			<point x="638.8762207031" y="1507.6185302734"/>
			<point x="577.2042236328" y="1508.6185302734" type="qcurve" smooth="yes"/>
			<point x="486.4526367188" y="1509.6185302734"/>
			<point x="357.7899169922" y="1323.7756958008"/>
			<point x="324.5804443359" y="1065.3162231445" type="qcurve" smooth="yes"/>
			<point x="294.3596191406" y="898.5395507812" type="line"/>
			<point x="296.150390625" y="886.0980224609" type="line"/>
			<point x="263.4215698242" y="633.1978759766" type="line" smooth="yes"/>
			<point x="191.4271240234" y="92.1286010742"/>
			<point x="-177.1683349609" y="-426.8021240234"/>
			<point x="-336.5844116211" y="-426.8021240234" type="qcurve"/>
		</contour>
		<contour>
			<point x="-38.0362548828" y="837.7965087891" type="line"/>
			<point x="-34.8500976562" y="923.3533935547" type="line"/>
			<point x="145.6559448242" y="936.3533935547" type="line"/>
			<point x="548.2051391602" y="944.3533935547" type="line"/>
			<point x="534.3912963867" y="862.7965087891" type="line"/>
			<point x="214.1530761719" y="817.7965087891" type="line"/>
			<point x="140.3536376953" y="810.7965087891" type="line"/>
		</contour>
	</outline>
	<anchor name="bottom" x="217" y="0"/>
	<anchor name="top" x="554" y="1536"/>
</glyph>
<glyph name="g" format="2">
	<unicode hex="0067"/>
	<advance width="1087"/>
	<outline>
		<contour>
			<point x="-1.8536590209" y="295" type="qcurve" smooth="yes"/>
			<point x="-12.485372888" y="590.0537109375"/>
			<point x="419.1055084596" y="1030.7829589844"/>
			<point x="631.098245276" y="1030.7829589844" type="qcurve" smooth="yes"/>
			<point x="732.4153839479" y="1030.7829589844"/>
			<point x="747.6506744752" y="980.7829589844"/>
			<point x="787.8885284791" y="945.7829589844" type="qcurve"/>
			<point x="815.3054596315" y="1008.7829589844" type="line"/>
			<point x="980.3054596315" y="1003.7829589844" type="line"/>
			<point x="1042.3054596315" y="919.7829589844" type="line"/>
			<point x="961.8191315065" y="579" type="line" smooth="yes"/>
			<point x="906.0893951784" y="347.7297363281"/>
			<point x="847.3601471315" y="177.0980834961"/>
			<point x="801.1187530885" y="38.0980834961" type="qcurve" smooth="yes"/>
			<point x="728.6359650026" y="-182.9019165039"/>
			<point x="347.2153107057" y="-458.9019165039"/>
			<point x="135.9866730104" y="-427.9019165039" type="qcurve"/>
			<point x="-32.3982146849" y="-361.9019165039" type="line"/>
			<point x="-22.1841033568" y="-271.4301757812" type="line"/>
			<point x="161.6379181276" y="-270.4302978516" type="line" smooth="yes"/>
			<point x="356.000955237" y="-273.6465454102"/>
			<point x="531.1385895143" y="-125.5032958984"/>
			<point x="626.7569366823" y="169.7795410156" type="qcurve" smooth="yes"/>
			<point x="643.3221832643" y="193.4895629883" type="line"/>
			<point x="617.3965240846" y="130.8223266602"/>
			<point x="423.1709991823" y="-24"/>
			<point x="269.8042999635" y="-24" type="qcurve" smooth="yes"/>
			<point x="131.7585235963" y="-24"/>
			<point x="2.9621979127" y="164"/>
		</contour>
		<contour>
			<point x="165.2555939088" y="291" type="qcurve" smooth="yes"/>
			<point x="170.0714508424" y="205.3327636719"/>
			<point x="275.4089142213" y="127.065612793"/>
			<point x="365.281045569" y="127.065612793" type="qcurve" smooth="yes"/>
			<point x="492.4754425416" y="127.065612793"/>
			<point x="678.9989410768" y="295.5551757812"/>
			<point x="720.8369537721" y="460.5104370117" type="qcurve" smooth="yes"/>
			<point x="823.2125030885" y="856.7395019531" type="line"/>
			<point x="804.3458649049" y="874.4063110352"/>
			<point x="711.9164215456" y="927.9397583008"/>
			<point x="622.6504303346" y="927.9397583008" type="qcurve" smooth="yes"/>
			<point x="438.8194977174" y="927.9397583008"/>
			<point x="156.4397369752" y="485.5463867188"/>
		</contour>
	</outline>
	<anchor name="bottom" x="324" y="-416"/>
	<anchor name="top" x="603" y="1000"/>
</glyph>
<glyph name="h" format="2">
	<unicode hex="0068"/>
	<advance width="1118"/>
	<outline>
		<contour>
			<point x="84.8815917969" y="-21" type="line"/>
			<point x="9.8815917969" y="99" type="line"/>
			<point x="123.8815917969" y="599" type="line"/>
			<point x="296.6771240234" y="1451.0913085938" type="line"/>
			<point x="128.0694580078" y="1429.0913085938" type="line"/>
			<point x="147.9783935547" y="1533" type="line"/>
			<point x="442.2408447266" y="1598" type="line"/>
			<point x="469.2408447266" y="1535" type="line"/>
			<point x="317.9908447266" y="671" type="line"/>
			<point x="202.9908447266" y="178" type="line"/>
			<point x="264.9908447266" y="33" type="line"/>
		</contour>
		<contour>
			<point x="717.9635009766" y="-24" type="line"/>
			<point x="646.9635009766" y="130" type="line"/>
			<point x="784.8829345703" y="686.841003418" type="line" smooth="yes"/>
			<point x="800.9471435547" y="747.0992431641"/>
			<point x="753.9536743164" y="813.3184204102"/>
			<point x="661.3598632812" y="813.3184204102" type="qcurve" smooth="yes"/>
			<point x="574.6527709961" y="813.3184204102"/>
			<point x="377.9981689453" y="684.4041137695"/>
			<point x="244.3568115234" y="558.6068725586" type="qcurve"/>
			<point x="234.7212524414" y="661.7389526367" type="line"/>
			<point x="435.1660766602" y="876.3322143555"/>
			<point x="721.1661987305" y="1020.5395507812"/>
			<point x="837.641784668" y="1020.5395507812" type="qcurve" smooth="yes"/>
			<point x="926.4873657227" y="1020.5395507812"/>
			<point x="996.0014648438" y="864.2966918945"/>
			<point x="966.0294799805" y="739.160949707" type="qcurve" smooth="yes"/>
			<point x="834.6887207031" y="156.9995117188" type="line"/>
			<point x="955.4329223633" y="176.9995117188" type="line"/>
			<point x="946.4329223633" y="87" type="line"/>
		</contour>
	</outline>
	<anchor name="bottom" x="420" y="0"/>
	<anchor name="center" x="347" y="1202"/>
	<anchor name="top" x="424" y="1534"/>
</glyph>
<glyph name="k" format="2">
	<unicode hex="006B"/>
	<advance width="1034"/>
	<outline>
		<contour>
			<point x="481.8318481445" y="381.9219970703" type="line"/>
			<point x="93.4408569336" y="158.4721069336" type="line"/>
			<point x="85.1228637695" y="280.9641113281" type="line"/>
			<point x="443.2883911133" y="545.7709350586" type="line"/>
			<point x="563.5405883789" y="618.8110351562"/>
			<point x="606.0970458984" y="849.8753662109"/>
			<point x="548.8448486328" y="849.8753662109" type="qcurve" smooth="yes"/>
			<point x="490.5936279297" y="849.8753662109"/>
			<point x="338.8639526367" y="729.6932373047"/>
			<point x="319.9353637695" y="710.5629272461" type="qcurve"/>
			<point x="304.09765625" y="618.1882324219" type="line"/>
			<point x="214.611328125" y="179" type="line"/>
			<point x="274.611328125" y="29" type="line"/>
			<point x="90.8815917969" y="-21" type="line"/>
			<point x="8.8815917969" y="101" type="line"/>
			<point x="124.8815917969" y="598" type="line"/>
			<point x="297.3589477539" y="1444.5913696289" type="line"/>
			<point x="54.22265625" y="1431.0913085938" type="line"/>
			<point x="73.1315917969" y="1533" type="line"/>
			<point x="452.861328125" y="1597" type="line"/>
			<point x="481.861328125" y="1534" type="line"/>
			<point x="347.6061401367" y="829.2813110352" type="line"/>
			<point x="398.2269287109" y="865.7750244141"/>
			<point x="666.2367553711" y="1038.4553222656"/>
			<point x="750.2458496094" y="1038.4553222656" type="qcurve" smooth="yes"/>
			<point x="846.760925293" y="1038.4553222656"/>
			<point x="953.3240966797" y="859.5717773438"/>
			<point x="923.0758666992" y="739.2841186523" type="qcurve" smooth="yes"/>
			<point x="912.202331543" y="673.5583496094" type="line"/>
			<point x="883.9000244141" y="628.767578125" type="line"/>
			<point x="498.5725097656" y="372.0223999023" type="line"/>
		</contour>
		<contour>
			<point x="602.0352172852" y="478.2143554688" type="line"/>
			<point x="813.9989013672" y="155.9995117188" type="line"/>
			<point x="924.3336181641" y="171.9995117188" type="line"/>
			<point x="919.3336181641" y="87" type="line"/>
			<point x="730.506652832" y="-16" type="line" smooth="yes"/>
			<point x="712.3704223633" y="-23.4727172852"/>
			<point x="699.7114868164" y="-9"/>
			<point x="681.6660766602" y="13" type="qcurve" smooth="yes"/>
			<point x="378.8007202148" y="410.4378662109" type="line"/>
		</contour>
	</outline>
	<anchor name="bottom" x="448" y="0"/>
	<anchor name="top" x="578" y="1534"/>
</glyph>
<glyph name="l" format="2">
	<unicode hex="006C"/>
	<advance width="507"/>
	<outline>
		<contour>
			<point x="84.0093994141" y="-26" type="line"/>
			<point x="9.0093994141" y="97" type="line"/>
			<point x="124.0093994141" y="601" type="line"/>
			<point x="298.9867553711" y="1445.9095458984" type="line"/>
			<point x="126.197265625" y="1429.0913085938" type="line"/>
			<point x="146.1062011719" y="1533" type="line"/>
			<point x="465.5756225586" y="1603" type="line"/>
			<point x="497.5756225586" y="1539" type="line"/>
			<point x="288.3256225586" y="588" type="line"/>
			<point x="204.4164428711" y="154.9995117188" type="line"/>
			<point x="368.4788208008" y="175.9995117188" type="line"/>
			<point x="359.4788208008" y="87" type="line"/>
		</contour>
	</outline>
	<anchor name="bottom" x="201" y="0"/>
	<anchor name="center" x="236" y="770"/>
	<anchor name="top" x="436" y="1534"/>
	<anchor name="topright" x="492" y="1000"/>
	<anchor name="centerright" x="707" y="742"/>
	<anchor name="liga" x="567" y="0"/>
</glyph>
<glyph name="m" format="2">
	<unicode hex="006D"/>
	<advance width="1675"/>
	<outline>
		<contour>
			<point x="93.9975585938" y="-21" type="line"/>
			<point x="19.9975585938" y="97" type="line"/>
			<point x="118.9975585938" y="509" type="line"/>
			<point x="186.789855957" y="810.9467163086" type="line"/>
			<point x="59.0456542969" y="853.9467163086" type="line"/>
			<point x="67.6820068359" y="934.8098144531" type="line"/>
			<point x="99.2202758789" y="1032.8098144531" type="line"/>
			<point x="379.2202758789" y="995.8098144531" type="line"/>
			<point x="355.9932250977" y="740.4600830078" type="line"/>
			<point x="339.3826293945" y="680" type="line"/>
			<point x="213.3826293945" y="180" type="line"/>
			<point x="278.3826293945" y="38" type="line"/>
		</contour>
		<contour>
			<point x="691.7236938477" y="-20" type="line"/>
			<point x="619.7236938477" y="97" type="line"/>
			<point x="759.8591308594" y="662.0769042969" type="line" smooth="yes"/>
			<point x="776.551574707" y="723.977722168"/>
			<point x="751.5524902344" y="798.7769775391"/>
			<point x="686.16015625" y="798.7769775391" type="qcurve" smooth="yes"/>
			<point x="615.8505249023" y="798.7769775391"/>
			<point x="393.2301635742" y="695.3864135742"/>
			<point x="195.0448608398" y="496.8455810547" type="qcurve"/>
			<point x="222.6489868164" y="639.5264282227" type="line"/>
			<point x="363.7803344727" y="819.580871582"/>
			<point x="722.4769287109" y="1019.0769042969"/>
			<point x="836.4089355469" y="1019.0769042969" type="qcurve" smooth="yes"/>
			<point x="882.7933349609" y="1019.0769042969"/>
			<point x="955.4842529297" y="833.216796875"/>
			<point x="919.8223266602" y="697.9370727539" type="qcurve" smooth="yes"/>
			<point x="811.6608276367" y="184" type="line"/>
			<point x="865.6608276367" y="36" type="line"/>
		</contour>
		<contour>
			<point x="1325.0040893555" y="-2" type="line"/>
			<point x="1226.0040893555" y="142" type="line"/>
			<point x="1354.4418334961" y="661.774597168" type="line" smooth="yes"/>
			<point x="1370.6292724609" y="721.4526977539"/>
			<point x="1314.8507080078" y="807.2885131836"/>
			<point x="1242.7724609375" y="807.2885131836" type="qcurve" smooth="yes"/>
			<point x="1160.6324462891" y="807.2885131836"/>
			<point x="945.0088500977" y="676.654296875"/>
			<point x="750.2129516602" y="482.1974487305" type="qcurve"/>
			<point x="779.75390625" y="634.4908447266" type="line"/>
			<point x="915.1440429688" y="789.7280883789"/>
			<point x="1327.8403930664" y="1019.0769042969"/>
			<point x="1437.9263305664" y="1019.0769042969" type="qcurve" smooth="yes"/>
			<point x="1510.2334594727" y="1019.0769042969"/>
			<point x="1558.4439086914" y="860.5658569336"/>
			<point x="1524.5855102539" y="736.2817382812" type="qcurve" smooth="yes"/>
			<point x="1395.3157958984" y="156.9995117188" type="line"/>
			<point x="1514.0599975586" y="172.9995117188" type="line"/>
			<point x="1505.0599975586" y="83" type="line"/>
		</contour>
	</outline>
	<anchor name="bottom" x="958" y="0"/>
	<anchor name="top" x="958" y="1000"/>
	<anchor name="cy_descender" x="1572" y="134"/>
</glyph>
<glyph name="n" format="2">
	<unicode hex="006E"/>
	<advance width="1090"/>
	<outline>
		<contour>
			<point x="92.9223022461" y="-36.1721191406" type="line"/>
			<point x="18.405090332" y="34.9448242188" type="line"/>
			<point x="117.9975585938" y="509" type="line"/>
			<point x="189.5828857422" y="831.4002075195" type="line"/>
			<point x="62.838684082" y="875.4002075195" type="line"/>
			<point x="70.4750366211" y="952.2633056641" type="line"/>
			<point x="252.9414672852" y="1030.8562011719" type="line"/>
			<point x="374.4272460938" y="995.8562011719" type="line"/>
			<point x="363.0477294922" y="780.4698486328" type="line"/>
			<point x="344.4272460938" y="720.5395507812" type="line"/>
			<point x="205.1696777344" y="113.4197998047" type="line"/>
			<point x="242.0227661133" y="27.572265625" type="line"/>
		</contour>
		<contour>
			<point x="714.4087524414" y="-21.1483154297" type="line"/>
			<point x="662.0384521484" y="106.2418212891" type="line"/>
			<point x="803.2348632812" y="695.2676391602" type="line" smooth="yes"/>
			<point x="822.9715576172" y="773.7780151367"/>
			<point x="780.9203491211" y="871.7567749023"/>
			<point x="690.9710693359" y="871.7567749023" type="qcurve" smooth="yes"/>
			<point x="610.12109375" y="871.7567749023"/>
			<point x="370.9444580078" y="679.5455932617"/>
			<point x="249.192565918" y="566.5817260742" type="qcurve"/>
			<point x="225.2349243164" y="634.7827148438" type="line"/>
			<point x="437.4813232422" y="860.5601806641"/>
			<point x="737.1278686523" y="1018.806640625"/>
			<point x="850.9469604492" y="1018.806640625" type="qcurve" smooth="yes"/>
			<point x="916.7831420898" y="1018.806640625"/>
			<point x="1012.6665039062" y="902.1752319336"/>
			<point x="982.8728637695" y="785.0509033203" type="qcurve" smooth="yes"/>
			<point x="840.7356567383" y="156.9995117188" type="line"/>
			<point x="958.4798583984" y="171.9995117188" type="line"/>
			<point x="951.4798583984" y="85" type="line"/>
		</contour>
	</outline>
	<anchor name="bottom" x="522" y="0"/>
	<anchor name="top" x="602" y="1000"/>
	<anchor name="liga" x="1173" y="0"/>
</glyph>
<glyph name="p" format="2">
	<unicode hex="0070"/>
	<advance width="1090"/>
	<outline>
		<contour>
			<point x="-85.1459960938" y="-392.301940918" type="line"/>
			<point x="136.2543945312" y="572" type="line"/>
			<point x="191.8488769531" y="836.8911132812" type="line"/>
			<point x="157.8488769531" y="963.8911132812" type="line"/>
			<point x="95.0274047852" y="1024.8911132812" type="line"/>
			<point x="292.0274047852" y="977.8911132812" type="line"/>
			<point x="316.7938842773" y="787.0704345703" type="line"/>
			<point x="358.2318115234" y="869.2649536133"/>
			<point x="657.6608276367" y="1018.158203125"/>
			<point x="786.0026855469" y="1018.158203125" type="qcurve" smooth="yes"/>
			<point x="894.1013793945" y="1018.158203125"/>
			<point x="1005.977355957" y="827.1345214844"/>
			<point x="1005.6090698242" y="670.3776855469" type="qcurve" smooth="yes"/>
			<point x="1005.2407836914" y="368.6752929688"/>
			<point x="628.4569091797" y="9"/>
			<point x="354.9805297852" y="9" type="qcurve" smooth="yes"/>
			<point x="280.3759155273" y="9"/>
			<point x="179.8549194336" y="37"/>
			<point x="156.4329223633" y="50" type="qcurve"/>
			<point x="70.2052001953" y="-323.8023681641" type="line"/>
			<point x="193.4946899414" y="-340.3932495117" type="line"/>
			<point x="180.5857543945" y="-412.301940918" type="line"/>
			<point x="-25.7459716797" y="-452.301940918" type="line"/>
		</contour>
		<contour>
			<point x="182.7203369141" y="133.0296630859" type="line"/>
			<point x="201.2067871094" y="125.2999267578"/>
			<point x="312.3358764648" y="100.2999267578"/>
			<point x="367.1287231445" y="101.2999267578" type="qcurve" smooth="yes"/>
			<point x="575.6453857422" y="106.2999267578"/>
			<point x="774.0971069336" y="353.3779296875"/>
			<point x="790.4653930664" y="518.3776855469" type="qcurve" smooth="yes"/>
			<point x="804.8336791992" y="648.7290039062"/>
			<point x="711.7932739258" y="811.8813476562"/>
			<point x="627.5161743164" y="811.8813476562" type="qcurve" smooth="yes"/>
			<point x="541.4682617188" y="811.8813476562"/>
			<point x="392.985534668" y="762.6365356445"/>
			<point x="309.4166870117" y="695.0319213867" type="qcurve"/>
			<point x="272.4329223633" y="531" type="line"/>
		</contour>
	</outline>
	<anchor name="bottom" x="599" y="0"/>
	<anchor name="top" x="599" y="1000"/>
</glyph>
<glyph name="q" format="2">
	<unicode hex="0071"/>
	<advance width="1119"/>
	<outline>
		<contour>
			<point x="-2.2265014648" y="280" type="qcurve" smooth="yes"/>
			<point x="3.7734985352" y="601.4860839844"/>
			<point x="472.7423706055" y="1031.1342773438"/>
			<point x="532.7048339844" y="1031.1342773438" type="qcurve" smooth="yes"/>
			<point x="660.7866821289" y="1031.1342773438"/>
			<point x="816.2930908203" y="971.1342773438"/>
			<point x="864.2675170898" y="934.1342773438" type="qcurve"/>
			<point x="811.4431152344" y="1012.1342773438" type="line"/>
			<point x="986.4431152344" y="1003.1342773438" type="line"/>
			<point x="1036.4431152344" y="928.1342773438" type="line"/>
			<point x="899.6865234375" y="407" type="line"/>
			<point x="735.8132324219" y="-301.1205444336" type="line"/>
			<point x="838.1481933594" y="-320.3932495117" type="line"/>
			<point x="815.2392578125" y="-412.301940918" type="line"/>
			<point x="553.1497802734" y="-424.301940918" type="line"/>
			<point x="532.4497680664" y="-375.301940918" type="line"/>
			<point x="652.7502441406" y="168" type="line"/>
			<point x="644.7502441406" y="168" type="line"/>
			<point x="579.8944091797" y="84"/>
			<point x="396.6013793945" y="-15"/>
			<point x="291.3625488281" y="-15" type="qcurve" smooth="yes"/>
			<point x="173.6815185547" y="-15"/>
			<point x="-5.2265014648" y="134"/>
		</contour>
		<contour>
			<point x="158.0897216797" y="291" type="qcurve" smooth="yes"/>
			<point x="158.0897216797" y="218.6038208008"/>
			<point x="235.9137573242" y="132.9514770508"/>
			<point x="335.8902587891" y="132.9514770508" type="qcurve" smooth="yes"/>
			<point x="453.2943725586" y="132.9514770508"/>
			<point x="691.8724975586" y="329.1153564453"/>
			<point x="731.2330322266" y="488" type="qcurve" smooth="yes"/>
			<point x="817.7342529297" y="861.0435791016" type="line"/>
			<point x="791.9183959961" y="880.0435791016"/>
			<point x="677.3864135742" y="929.0435791016"/>
			<point x="610.4068603516" y="929.0435791016" type="qcurve" smooth="yes"/>
			<point x="465.6315307617" y="929.0435791016"/>
			<point x="158.0897216797" y="503.4638061523"/>
		</contour>
	</outline>
	<anchor name="bottom" x="594" y="0"/>
	<anchor name="top" x="594" y="1000"/>
</glyph>
<glyph name="r" format="2">
	<unicode hex="0072"/>
	<advance width="877"/>
	<outline>
		<contour>
			<point x="98.1372070312" y="-20" type="line"/>
			<point x="23.1372070312" y="102" type="line"/>
			<point x="143.1372070312" y="527" type="line"/>
			<point x="190.9295043945" y="814.6285400391" type="line"/>
			<point x="60.1853027344" y="855.9467163086" type="line"/>
			<point x="67.8216552734" y="934.8098144531" type="line"/>
			<point x="100.0841064453" y="1035.8098144531" type="line"/>
			<point x="377.0841064453" y="999.8098144531" type="line"/>
			<point x="348.4564208984" y="815.2505493164" type="line"/>
			<point x="358.0841064453" y="767.8098144531" type="line"/>
			<point x="219.655456543" y="153.7268066406" type="line"/>
			<point x="336.3996582031" y="166.9995117188" type="line"/>
			<point x="333.3996582031" y="85" type="line"/>
		</contour>
		<contour>
			<point x="719.1403808594" y="544.0950927734" type="line"/>
			<point x="738.775390625" y="889.079284668" type="line"/>
			<point x="654.9055175781" y="886.079284668"/>
			<point x="411.2463989258" y="809.2744140625"/>
			<point x="254.7819824219" y="607.2051391602" type="qcurve"/>
			<point x="259.7424316406" y="716.5844726562" type="line"/>
			<point x="331.4110717773" y="818.3221435547"/>
			<point x="618.7966918945" y="1028.0769042969"/>
			<point x="723.9768676758" y="1028.0769042969" type="qcurve" smooth="yes"/>
			<point x="838.5885620117" y="1028.0769042969"/>
			<point x="940.5705566406" y="907.0769042969"/>
			<point x="940.5705566406" y="813.0769042969" type="qcurve" smooth="yes"/>
			<point x="940.5705566406" y="704.3270715628"/>
			<point x="894.3854293823" y="488.0950927734"/>
			<point x="802.6007080078" y="490.0157470703" type="qcurve" smooth="yes"/>
		</contour>
	</outline>
	<anchor name="bottom" x="282" y="0"/>
	<anchor name="top" x="486" y="1000"/>
</glyph>
<glyph name="s" format="2">
	<unicode hex="0073"/>
	<advance width="897"/>
	<outline>
		<contour>
			<point x="-57.7337646484" y="185" type="qcurve" smooth="yes"/>
			<point x="-57.7337646484" y="267"/>
			<point x="14.4736328125" y="343"/>
			<point x="51.3363647461" y="340" type="qcurve" smooth="yes"/>
			<point x="127.3363647461" y="337" type="line"/>
			<point x="127.3363647461" y="216" type="line" smooth="yes"/>
			<point x="127.3363647461" y="138.1772460938"/>
			<point x="201.9971923828" y="52.7540283203"/>
			<point x="420.4873657227" y="52.7540283203" type="qcurve" smooth="yes"/>
			<point x="562.4965820312" y="52.7540283203"/>
			<point x="695.2313842773" y="157.0391845703"/>
			<point x="696.2313842773" y="230.7666625977" type="qcurve" smooth="yes"/>
			<point x="697.2313842773" y="314.164855957"/>
			<point x="597.0686645508" y="385.0813598633"/>
			<point x="405.9348144531" y="437.7764892578" type="qcurve" smooth="yes"/>
			<point x="214.4508666992" y="494.1273803711"/>
			<point x="102.9752197266" y="626.5895996094"/>
			<point x="113.7338256836" y="756.9409179688" type="qcurve" smooth="yes"/>
			<point x="125.4924316406" y="834.8640136719"/>
			<point x="319.4092407227" y="1051.4067382812"/>
			<point x="521.6885375977" y="1051.4067382812" type="qcurve" smooth="yes"/>
			<point x="661.8123779297" y="1051.4067382812"/>
			<point x="910.0438232422" y="936.5395507812"/>
			<point x="911.0438232422" y="848.5395507812" type="qcurve" smooth="yes"/>
			<point x="912.0438232422" y="775.5395507812"/>
			<point x="825.0778198242" y="693.5395507812"/>
			<point x="765.9732666016" y="689.5395507812" type="qcurve" smooth="yes"/>
			<point x="723.9732666016" y="720.5395507812" type="line"/>
			<point x="721.9732666016" y="864.5395507812" type="line" smooth="yes"/>
			<point x="720.9732666016" y="886.5631103516"/>
			<point x="607.0836181641" y="975.6521606445"/>
			<point x="433.0089111328" y="975.6521606445" type="qcurve" smooth="yes"/>
			<point x="280.1002807617" y="975.6521606445"/>
			<point x="236.3067016602" y="881.8406982422"/>
			<point x="236.3067016602" y="820.9240112305" type="qcurve" smooth="yes"/>
			<point x="236.3067016602" y="761.0816650391"/>
			<point x="327.3803710938" y="699.4340820312"/>
			<point x="498.8556518555" y="644.557800293" type="qcurve" smooth="yes"/>
			<point x="676.1516113281" y="584.5095825195"/>
			<point x="848.05078125" y="446.9899291992"/>
			<point x="843.05078125" y="302.5637817383" type="qcurve"/>
			<point x="837.6407470703" y="157.8682250977"/>
			<point x="533.0615234375" y="-30.8671875"/>
			<point x="329.451965332" y="-30.8671875" type="qcurve" smooth="yes"/>
			<point x="130.0997314453" y="-30.8671875"/>
			<point x="-57.7337646484" y="81"/>
		</contour>
	</outline>
	<anchor name="bottom" x="282" y="0"/>
	<anchor name="top" x="446" y="1000"/>
</glyph>
<glyph name="t" format="2">
	<unicode hex="0074"/>
	<advance width="523"/>
	<outline>
		<contour>
			<point x="176.9536132812" y="-22" type="line"/>
			<point x="82.9536132812" y="132" type="line"/>
			<point x="159.9536132812" y="503" type="line"/>
			<point x="221.9187011719" y="828.1911010742" type="line"/>
			<point x="-9.0012207031" y="876.1911010742" type="line"/>
			<point x="-5.3735351562" y="948.0272216797" type="line"/>
			<point x="261.6146240234" y="991.0272216797"/>
			<point x="364.8720703125" y="1189.0770874023"/>
			<point x="338.9388427734" y="1266.5395507812" type="qcurve"/>
			<point x="353.7980957031" y="1275.5395507812" type="line"/>
			<point x="429.7980957031" y="1204.5395507812" type="line"/>
			<point x="274.9604492188" y="486" type="line"/>
			<point x="209.0967407227" y="155.135925293" type="line"/>
			<point x="392.3081054688" y="170.135925293" type="line"/>
			<point x="387.3081054688" y="81" type="line"/>
		</contour>
		<contour>
			<point x="627.1866455078" y="840.5164794922" type="line"/>
			<point x="642.8604736328" y="953.7710571289" type="line"/>
			<point x="658.0046386719" y="969.8402709961" type="line"/>
			<point x="645.4000244141" y="878.5164794922" type="line"/>
		</contour>
	</outline>
	<anchor name="bottom" x="149" y="0"/>
	<anchor name="center" x="262" y="622"/>
	<anchor name="top" x="322" y="1179"/>
	<anchor name="topright" x="600" y="920"/>
</glyph>
<glyph name="u" format="2">
	<unicode hex="0075"/>
	<advance width="1049"/>
	<outline>
		<contour>
			<point x="719.111328125" y="-17" type="line"/>
			<point x="641.111328125" y="79" type="line"/>
			<point x="625.2096557617" y="204.6499633789" type="line"/>
			<point x="764.9489746094" y="874.080078125" type="line"/>
			<point x="725.9489746094" y="970.080078125" type="line"/>
			<point x="874.9205322266" y="1027.080078125" type="line"/>
			<point x="935.9205322266" y="914.080078125" type="line"/>
			<point x="814.2512207031" y="410" type="line"/>
			<point x="759.2646484375" y="158.6813354492" type="line"/>
			<point x="878.5997314453" y="171.6813354492" type="line"/>
			<point x="871.2360839844" y="84" type="line"/>
		</contour>
		<contour>
			<point x="59.0093994141" y="309" type="qcurve" smooth="yes"/>
			<point x="164.8016967773" y="821.53515625" type="line"/>
			<point x="52.0574951172" y="853.53515625" type="line"/>
			<point x="59.6938476562" y="933.080078125" type="line"/>
			<point x="138.9562988281" y="1024.080078125" type="line"/>
			<point x="307.9562988281" y="1010.080078125" type="line"/>
			<point x="371.9562988281" y="953.080078125" type="line"/>
			<point x="224.0255737305" y="329.5346069336" type="line" smooth="yes"/>
			<point x="203.1737670898" y="250.34765625"/>
			<point x="262.1756591797" y="147.8814697266"/>
			<point x="341.7589111328" y="147.8814697266" type="qcurve" smooth="yes"/>
			<point x="434.1437988281" y="147.8814697266"/>
			<point x="659.9078979492" y="248.1224975586"/>
			<point x="718.2283935547" y="334.3283081055" type="qcurve"/>
			<point x="733.2854614258" y="293.1442871094" type="line"/>
			<point x="706.3677978516" y="186.4770507812"/>
			<point x="369.5270385742" y="-17"/>
			<point x="251.203918457" y="-17" type="qcurve" smooth="yes"/>
			<point x="133.2810668945" y="-17"/>
			<point x="31.0824584961" y="172.4949951172"/>
		</contour>
	</outline>
	<anchor name="bottom" x="404" y="0"/>
	<anchor name="ogonek" x="871" y="20"/>
	<anchor name="top" x="572" y="1000"/>
	<anchor name="topright" x="915" y="1000"/>
	<anchor name="cy_descender" x="1018" y="134"/>
</glyph>
<glyph name="v" format="2">
	<unicode hex="0076"/>
	<advance width="935"/>
	<outline>
		<contour>
			<point x="190.9286499023" y="1.2663574219" type="line"/>
			<point x="170.1190185547" y="513.2606201172" type="line"/>
			<point x="149.241394043" y="873.4037475586" type="line"/>
			<point x="62.6487426758" y="850.6764526367" type="line"/>
			<point x="67.2850952148" y="936.5395507812" type="line"/>
			<point x="246.3516845703" y="1031.5395507812" type="line"/>
			<point x="313.5607910156" y="1016.5395507812" type="line"/>
			<point x="345.8384399414" y="465.0004882812" type="line"/>
			<point x="349.9739379883" y="201.2891235352" type="line"/>
			<point x="349.1406860352" y="99.3029785156" type="line"/>
			<point x="355.3677368164" y="99.3029785156" type="line"/>
			<point x="497.5317993164" y="224.8831176758" type="line"/>
			<point x="682.0200195312" y="443.6874389648"/>
			<point x="747.3788452148" y="677.2487182617"/>
			<point x="751.3788452148" y="780.6727294922" type="qcurve" smooth="yes"/>
			<point x="755.3788452148" y="857.7838134766"/>
			<point x="723.6931762695" y="944.2838134766"/>
			<point x="650.6931762695" y="993.8466796875" type="qcurve" smooth="yes"/>
			<point x="673.6931762695" y="995.8333129883"/>
			<point x="725.3595581055" y="1025.0546264648"/>
			<point x="778.5982055664" y="1025.0546264648" type="qcurve" smooth="yes"/>
			<point x="858.705871582" y="1025.0546264648"/>
			<point x="958.9575805664" y="938.6038208008"/>
			<point x="952.9575805664" y="843.2973632812" type="qcurve" smooth="yes"/>
			<point x="943.9575805664" y="735.3461914062"/>
			<point x="542.1042480469" y="150.8153686523"/>
			<point x="322.8586425781" y="-4.7336425781" type="qcurve"/>
		</contour>
	</outline>
	<anchor name="bottom" x="513" y="0"/>
	<anchor name="top" x="513" y="1000"/>
</glyph>
<glyph name="w" format="2">
	<unicode hex="0077"/>
	<advance width="1397"/>
	<outline>
		<contour>
			<point x="166.4948730469" y="0" type="line"/>
			<point x="149.9571533203" y="573.0158691406" type="line"/>
			<point x="133.1883544922" y="873.6764526367" type="line"/>
			<point x="47.5806884766" y="846.6764526367" type="line"/>
			<point x="51.2170410156" y="933.5395507812" type="line"/>
			<point x="116.5593261719" y="1029.5395507812" type="line"/>
			<point x="302.4890136719" y="1012.5395507812" type="line"/>
			<point x="300.7040405273" y="595.6936035156" type="line"/>
			<point x="325.0904541016" y="184.0609741211" type="line"/>
			<point x="318.1517333984" y="107.2015380859" type="line"/>
			<point x="319.1517333984" y="107.2015380859" type="line"/>
			<point x="364.9018554688" y="200.9793701172" type="line"/>
			<point x="455.5040893555" y="343.6058349609"/>
			<point x="631.2691650391" y="606.9512329102"/>
			<point x="650.3798217773" y="701.1029663086" type="qcurve"/>
			<point x="637.1603393555" y="884.3527832031" type="line"/>
			<point x="579.9887084961" y="857.6154174805" type="line"/>
			<point x="578.2344970703" y="944.5340576172" type="line"/>
			<point x="621.9613647461" y="1031.0168457031" type="line"/>
			<point x="805.9053955078" y="1015.0168457031" type="line"/>
			<point x="822.6286621094" y="521.8187866211" type="line"/>
			<point x="842.1612548828" y="192.8265991211" type="line"/>
			<point x="838.4072265625" y="86.6326904297" type="line"/>
			<point x="839.4072265625" y="86.6326904297" type="line"/>
			<point x="959.8662719727" y="220.7228393555" type="line"/>
			<point x="1122.26171875" y="434.8010864258"/>
			<point x="1213.76171875" y="742.1280517578"/>
			<point x="1217.76171875" y="818.8749389648" type="qcurve" smooth="yes"/>
			<point x="1221.76171875" y="857.2151489258"/>
			<point x="1223.5198974609" y="943.3661499023"/>
			<point x="1153.0026855469" y="1000.9526367188" type="qcurve" smooth="yes"/>
			<point x="1178.4854736328" y="1017.504699707"/>
			<point x="1242.5891723633" y="1029.5395507812"/>
			<point x="1282.5207519531" y="1029.5395507812" type="qcurve" smooth="yes"/>
			<point x="1363.7969970703" y="971.5438232422"/>
			<point x="1458.486328125" y="949.0223388672"/>
			<point x="1452.486328125" y="886.5051269531" type="qcurve" smooth="yes"/>
			<point x="1443.486328125" y="779.2368774414"/>
			<point x="1162.4926147461" y="261.3430786133"/>
			<point x="904.8259887695" y="-4" type="qcurve"/>
			<point x="680.201171875" y="3" type="line"/>
			<point x="666.0776977539" y="402.3714599609" type="line"/>
			<point x="674.659362793" y="489.5816040039" type="line"/>
			<point x="673.659362793" y="489.5816040039" type="line"/>
			<point x="644.5979614258" y="378.6708374023" type="line"/>
			<point x="655.1688232422" y="331.5162353516"/>
			<point x="501.6898193359" y="139.1546020508"/>
			<point x="361.2606811523" y="-6" type="qcurve"/>
		</contour>
	</outline>
	<anchor name="bottom" x="787" y="0"/>
	<anchor name="top" x="717" y="1000"/>
</glyph>
<glyph name="x" format="2">
	<unicode hex="0078"/>
	<advance width="1020"/>
	<outline>
		<contour>
			<point x="4.29296875" y="34.1330566406" type="qcurve"/>
			<point x="-43.2084960938" y="86.1330566406" type="line"/>
			<point x="-19.0722045898" y="167.3598022461" type="line"/>
			<point x="50.3834228516" y="163.3598022461" type="line" smooth="yes"/>
			<point x="130.9229736328" y="158.0118408203"/>
			<point x="263.0115356445" y="196.5082397461"/>
			<point x="342.8397216797" y="228.706237793" type="qcurve" smooth="yes"/>
			<point x="393.1693725586" y="251.7663574219"/>
			<point x="444.8850097656" y="309.5228271484"/>
			<point x="512.9790039062" y="377.444519043" type="qcurve"/>
			<point x="316.6875" y="870.9491577148" type="line"/>
			<point x="167.4436035156" y="852.6764526367" type="line"/>
			<point x="170.0799560547" y="935.5395507812" type="line"/>
			<point x="327.8604736328" y="1030.5395507812" type="line"/>
			<point x="431.8604736328" y="1004.5395507812" type="line"/>
			<point x="475.4112548828" y="844.9803466797" type="line"/>
			<point x="492.6253662109" y="767.9522705078" type="line"/>
			<point x="519.6253662109" y="795.9522705078" type="line"/>
			<point x="551.024597168" y="849.9022827148" type="line" smooth="yes"/>
			<point x="567.2247924805" y="873.21875"/>
			<point x="623.4841308594" y="940.3262329102"/>
			<point x="678.8251953125" y="970.7416992188" type="qcurve" smooth="yes"/>
			<point x="727.907409668" y="1000.0249023438"/>
			<point x="861.390625" y="1043.4064941406"/>
			<point x="931.5609130859" y="1043.4064941406" type="qcurve" smooth="yes"/>
			<point x="1011.9122314453" y="1043.4064941406"/>
			<point x="1101.4615478516" y="956.4064941406"/>
			<point x="1099.4615478516" y="894.4064941406" type="qcurve" smooth="yes"/>
			<point x="1096.4615478516" y="827.4064941406"/>
			<point x="1012.5069580078" y="692.4064941406"/>
			<point x="975.5069580078" y="671.4064941406" type="qcurve"/>
			<point x="904.5069580078" y="685.4064941406" type="line"/>
			<point x="903.4064941406" y="839.0307617188" type="line" smooth="yes"/>
			<point x="902.7282714844" y="851.0737304688"/>
			<point x="875.9022216797" y="880.473815918"/>
			<point x="838.9242553711" y="880.473815918" type="qcurve" smooth="yes"/>
			<point x="796.7890014648" y="880.473815918"/>
			<point x="678.3131103516" y="822.5465698242"/>
			<point x="626.5537719727" y="776.986328125" type="qcurve" smooth="yes"/>
			<point x="586.6156616211" y="740.0588989258"/>
			<point x="571.7489013672" y="700.7326049805"/>
			<point x="531.4772338867" y="649.2585449219" type="qcurve"/>
			<point x="725.9565429688" y="154.9995117188" type="line"/>
			<point x="903.927734375" y="171.9995117188" type="line"/>
			<point x="903.927734375" y="83" type="line"/>
			<point x="723.3520507812" y="-16.2502441406" type="line"/>
			<point x="612.3520507812" y="29.7497558594" type="line"/>
			<point x="574.4918212891" y="170.8739013672" type="line"/>
			<point x="556.0260620117" y="243.3614501953" type="line"/>
			<point x="555.0260620117" y="243.3614501953" type="line"/>
			<point x="520.1041259766" y="183.7271118164" type="line"/>
			<point x="474.3206176758" y="134.2348022461"/>
			<point x="372.5506591797" y="39.4048461914"/>
			<point x="315.6761474609" y="25.1341552734" type="qcurve" smooth="yes"/>
			<point x="210.8492431641" y="-10.8154296875"/>
			<point x="77.0927124023" y="-12.9334106445"/>
		</contour>
	</outline>
	<anchor name="bottom" x="522" y="0"/>
	<anchor name="top" x="522" y="1000"/>
	<anchor name="cy_descender" x="832" y="134"/>
	<anchor name="center" x="432" y="502"/>
</glyph>
<glyph name="y" format="2">
	<unicode hex="0079"/>
	<advance width="945"/>
	<outline>
		<contour>
			<point x="-358.7219848633" y="-373.9019165039" type="line"/>
			<point x="-347.7219848633" y="-315.9019165039" type="line"/>
			<point x="-216.3335571289" y="-300.9019165039" type="line" smooth="yes"/>
			<point x="-75.0823364258" y="-286.9019165039"/>
			<point x="196.8521118164" y="-221.0935668945"/>
			<point x="320.5234985352" y="-81.7729492188" type="qcurve" smooth="yes"/>
			<point x="409.2260131836" y="0" type="line"/>
			<point x="246.8150634766" y="0" type="line"/>
			<point x="259.4763793945" y="24.8381347656"/>
			<point x="163.2041015625" y="748.6764526367"/>
			<point x="146.8801879883" y="874.6764526367" type="qcurve"/>
			<point x="24.0452880859" y="850.6764526367" type="line"/>
			<point x="29.681640625" y="936.5395507812" type="line"/>
			<point x="222.4931640625" y="1032.5395507812" type="line"/>
			<point x="283.5645751953" y="1015.5395507812" type="line"/>
			<point x="320.5645751953" y="946.5395507812" type="line"/>
			<point x="407.2342529297" y="174.7783203125" type="line"/>
			<point x="417.7499389648" y="63.2156982422" type="line"/>
			<point x="418.7499389648" y="63.2156982422" type="line"/>
			<point x="513.7990112305" y="188.8955078125" type="line" smooth="yes"/>
			<point x="665.3627319336" y="410.0282592773"/>
			<point x="738.5776977539" y="727.97265625"/>
			<point x="741.5776977539" y="888.0856933594" type="qcurve" smooth="yes"/>
			<point x="742.5776977539" y="932.7406005859"/>
			<point x="827.1584472656" y="971.1205444336"/>
			<point x="754.1584472656" y="1003.6041870117" type="qcurve" smooth="yes"/>
			<point x="777.1584472656" y="1015.6734619141"/>
			<point x="829.6760864258" y="1022.8120117188"/>
			<point x="864.0560302734" y="1022.8120117188" type="qcurve" smooth="yes"/>
			<point x="950.3666992188" y="1022.8120117188"/>
			<point x="1003.4625244141" y="954.2255249023"/>
			<point x="998.4625244141" y="941.8107299805" type="qcurve" smooth="yes"/>
			<point x="989.4625244141" y="882.8425292969"/>
			<point x="647.3945922852" y="231.6428833008"/>
			<point x="448.6441650391" y="-20.2344970703" type="qcurve" smooth="yes"/>
			<point x="344.7352294922" y="-118.6663818359" type="line" smooth="yes"/>
			<point x="155.4635009766" y="-343.7976074219"/>
			<point x="-14.4446411133" y="-425.9019165039"/>
			<point x="-237.399230957" y="-431.9019165039" type="qcurve"/>
		</contour>
	</outline>
	<anchor name="bottom" x="782" y="0"/>
	<anchor name="top" x="504" y="1000"/>
</glyph>
<glyph name="z" format="2">
	<unicode hex="007A"/>
	<advance width="807"/>
	<outline>
		<contour>
			<point x="-90.1759033203" y="-28.5999145508" type="line"/>
			<point x="-119.0024414062" y="86.1994018555" type="line"/>
			<point x="-28.1204223633" y="149.6437988281"/>
			<point x="107.9085693359" y="307.7947998047"/>
			<point x="240.9796142578" y="416.4163818359" type="qcurve" smooth="yes"/>
			<point x="385.5289306641" y="525.4163818359"/>
			<point x="525.9267578125" y="658.5989379883"/>
			<point x="550.3185424805" y="708.5395507812" type="qcurve"/>
			<point x="100.9140625" y="720.5395507812" type="line"/>
			<point x="46.6441650391" y="589.5393066406" type="line"/>
			<point x="-47.6563720703" y="595.5393066406" type="line"/>
			<point x="71.6135253906" y="976.5395507812" type="line"/>
			<point x="131.6135253906" y="1027.5395507812" type="line"/>
			<point x="780.6575317383" y="1015.5395507812" type="line"/>
			<point x="807.3908081055" y="901.984375" type="line"/>
			<point x="730.6262817383" y="838.984375"/>
			<point x="638.9630126953" y="706.9453125"/>
			<point x="482.2047119141" y="580.6750488281" type="qcurve" smooth="yes"/>
			<point x="363.975402832" y="480.0534667969"/>
			<point x="269.739440918" y="361.5994262695"/>
			<point x="239.7434082031" y="331.1771850586" type="qcurve"/>
			<point x="671.689453125" y="290.4686279297" type="line"/>
			<point x="760.8323974609" y="449.3895263672" type="line"/>
			<point x="852.2520141602" y="434.9204711914" type="line"/>
			<point x="666.1079711914" y="37" type="line"/>
			<point x="562.1079711914" y="-34" type="line"/>
			<point x="78.623840332" y="56.6889648438" type="line"/>
		</contour>
	</outline>
	<anchor name="bottom" x="443" y="0"/>
	<anchor name="top" x="463" y="1000"/>
	<anchor name="_liga" x="0" y="0"/>
</glyph>
<glyph name="idotless" format="2">
	<unicode hex="0131"/>
	<advance width="529"/>
	<outline>
		<contour>
			<point x="102.8236083984" y="-21" type="line"/>
			<point x="28.8236083984" y="119" type="line"/>
			<point x="133.1478271484" y="529.4318847656" type="line"/>
			<point x="197.931640625" y="810.6764526367" type="line"/>
			<point x="68.1419677734" y="852.6764526367" type="line"/>
			<point x="74.7783203125" y="932.5395507812" type="line"/>
			<point x="103.2133178711" y="1030.5395507812" type="line"/>
			<point x="396.2133178711" y="994.5395507812" type="line"/>
			<point x="401.2133178711" y="926.5395507812" type="line"/>
			<point x="351.2133178711" y="751.5395507812" type="line"/>
			<point x="288.4296264648" y="479.4318847656" type="line"/>
			<point x="215.5144042969" y="163.9995117188" type="line"/>
			<point x="352.258605957" y="174.9995117188" type="line"/>
			<point x="343.258605957" y="88" type="line"/>
		</contour>
	</outline>
	<anchor name="bottom" x="180" y="0"/>
	<anchor name="top" x="320" y="1000"/>
	<anchor name="ogonek" x="180" y="0"/>
	<anchor name="yu_dash" x="239" y="498"/>
	<anchor name="liga" x="618" y="0"/>
</glyph>
